<?xml version="1.0" standalone="no"?>
<!DOCTYPE svg PUBLIC "-//W3C//DTD SVG 1.1//EN" "http://www.w3.org/Graphics/SVG/1.1/DTD/svg11.dtd">
<svg width="100%" height="100%" viewBox="0 0 1280 1150" version="1.1" xmlns="http://www.w3.org/2000/svg" xmlns:xlink="http://www.w3.org/1999/xlink" xml:space="preserve" style="fill-rule:evenodd;clip-rule:evenodd;stroke-linecap:round;stroke-linejoin:round;stroke-miterlimit:1.41421;">
    <g id="Schatten" transform="matrix(1.01137,0,0,0.939138,-7.68215,62.8137)">
        <rect x="477.683" y="1011.63" width="306.777" height="35.656" style="fill:url(#_Linear1);"/>
    </g>
    <g id="Hülle">
        <rect x="476.978" y="212.464" width="307.43" height="799.501" style="fill:rgb(235,235,235);stroke-width:3.5px;stroke:black;"/>
        <path d="M487.754,140.953L476.978,212.464L784.849,212.464L766.484,140.953L722.395,94.82L523.739,94.82L487.754,140.953Z" style="fill:rgb(235,235,235);stroke-width:3.5px;stroke:black;"/>
        <g transform="matrix(1.0327,0,0,1.02464,-16.2171,-3.54887)">
            <path d="M495.921,141.646L523.803,141.646L525.356,102.644L495.921,141.646Z" style="fill:url(#_Linear2);stroke-width:0.49px;stroke:black;"/>
        </g>
        <g transform="matrix(1,0,0,1,0,1.28497)">
            <path d="M724.334,140.31L758.828,140.31L719.344,100.287L724.334,140.31Z" style="fill:url(#_Linear3);stroke-width:0.5px;stroke:black;"/>
        </g>
        <path d="M524.777,141.583L724.377,141.583L719.386,101.669L526.331,101.669L524.777,141.583Z" style="fill:url(#_Linear4);stroke-width:0.5px;stroke:black;"/>
    </g>
    <defs>
        <linearGradient id="_Linear1" x1="0" y1="0" x2="1" y2="0" gradientUnits="userSpaceOnUse" gradientTransform="matrix(0.313281,-42.1159,39.1081,0.337376,698.209,1047.75)"><stop offset="0%" style="stop-color:white;stop-opacity:1"/><stop offset="100%" style="stop-color:black;stop-opacity:1"/></linearGradient>
        <linearGradient id="_Linear2" x1="0" y1="0" x2="1" y2="0" gradientUnits="userSpaceOnUse" gradientTransform="matrix(-35.2524,-71.7231,71.163,-35.5299,531.5,148.802)"><stop offset="0%" style="stop-color:white;stop-opacity:1"/><stop offset="100%" style="stop-color:black;stop-opacity:1"/></linearGradient>
        <linearGradient id="_Linear3" x1="0" y1="0" x2="1" y2="0" gradientUnits="userSpaceOnUse" gradientTransform="matrix(25.8728,-70.2419,70.2419,25.8728,715.935,151.092)"><stop offset="0%" style="stop-color:white;stop-opacity:1"/><stop offset="100%" style="stop-color:black;stop-opacity:1"/></linearGradient>
        <linearGradient id="_Linear4" x1="0" y1="0" x2="1" y2="0" gradientUnits="userSpaceOnUse" gradientTransform="matrix(4.02149,-88.148,88.148,4.02149,612.643,145.311)"><stop offset="0%" style="stop-color:white;stop-opacity:1"/><stop offset="100%" style="stop-color:black;stop-opacity:1"/></linearGradient>
    </defs>
</svg>
