<?xml version="1.0" encoding="UTF-8"?>
<svg clip-rule="evenodd" fill-rule="evenodd" stroke-linecap="round" stroke-linejoin="round" stroke-miterlimit="1.4142" version="1.1" viewBox="0 0 7112 6389" xml:space="preserve" xmlns="http://www.w3.org/2000/svg" xmlns:cc="http://creativecommons.org/ns#" xmlns:dc="http://purl.org/dc/elements/1.1/" xmlns:rdf="http://www.w3.org/1999/02/22-rdf-syntax-ns#" xmlns:xlink="http://www.w3.org/1999/xlink"><metadata><rdf:RDF><cc:Work rdf:about=""><dc:format>image/svg+xml</dc:format><dc:type rdf:resource="http://purl.org/dc/dcmitype/StillImage"/></cc:Work></rdf:RDF></metadata><g id="a"><g transform="matrix(11.222 0 0 11.483 -2689.2 563.77)"><path d="m798.73 116.4c-4.169-0.044-13.869-4.1812-16.922-6.0482 0.046-0.361 2.522-11.741 3.906-16.292 0.22-0.726 1.552-3.052 4.228-2.411 0.842 0.202 5.4627 1.6611 6.4167 2.3161 1.829 1.258 7.4922 3.1984 7.4742 3.6614-0.288 7.429-5.103 19.108-5.103 18.774z" fill="#333" stroke="#000" stroke-width="2.2px"/></g><g transform="matrix(5.5556 0 0 5.5556 350.18 1412.8)"><path d="m1064.2 97.575c2.6212 1.1673-29.654-9.3642-34.964-14.309l3.9647-0.24342c0.1 0 0.2895-3.2373 0.4095-3.3663l-1.7503-3.841c11.59 6.637 29.241 10.471 29.241 10.471l5.1672 1.995c-0.21 0.785-3.7913 4.4483-3.7913 5.4113" fill="#333" stroke="#000" stroke-width="4.5px"/></g><path d="m5486.3 4223.9c93.444 13.061 187.89 28.244 283.51 45.928 257.51-1107.9 258.31-1108.3 490.86-2309.2-190-80.767 0 0-190-80.767l-64.138 265.66c-73.215 303.25-519.69 2077.4-520.71 2075.7" fill="#333" stroke="#000" stroke-width="25px"/></g><g transform="scale(5.5556)"><path d="m1026 942.66c4.17 8.72 34.6 9.284 38.4 0" stroke="#000" stroke-width="2px"/><g transform="translate(-804.57 .6497)"><path d="m1026 942.66c4.17 8.72 34.6 9.284 38.4 0" stroke="#000" stroke-width="2px"/></g></g><use transform="matrix(-1 0 0 1 7130.7 28.929)" width="100%" height="100%" xlink:href="#a"/><g transform="scale(5.5556)" stroke="#000" stroke-width="3px"><path d="m126.71 786.6h1026.3l-3.53 130.91c-1.39 17.201-7.91 25.523-21.18 25.161h-972.96c-10.845-0.647-18.813-6.822-20.449-25.161l-8.139-130.91z" fill="#333"/><path d="m126.41 754.76h1026.6v31.853h-77.51v94.053c0.37 16.555-9.13 23.574-26.83 22.693h-818.43c-13.894 0.67-21.64-6.633-22.635-22.693v-94.053h-81.146v-31.853" fill="#fff"/><path d="m218.77 786.61h844.56v91.594c0.24 7.169-2.76 11.444-10.54 11.174h-823.62c-6.638 0.055-10.024-6.042-10.407-11.174v-91.594z" fill="#333"/></g><g transform="scale(5.5556)"><path d="m859 845.01c0-3.809-3.093-6.902-6.902-6.902h-580.74c-3.809 0-6.901 3.093-6.901 6.902v13.804c0 3.809 3.092 6.901 6.901 6.901h580.74c3.809 0 6.902-3.092 6.902-6.901v-13.804z" fill="none" stroke="#fff" stroke-width="4px"/><g transform="matrix(.12918 0 0 1 843.76 -.019639)"><path d="m859 845.01c0-3.809-23.94-6.902-53.428-6.902h-487.69c-29.487 0-53.427 3.093-53.427 6.902v13.804c0 3.809 23.94 6.901 53.427 6.901h487.69c29.488 0 53.428-3.092 53.428-6.901v-13.804z" fill="none" stroke="#fff" stroke-width="5.61px"/></g><path d="m1004.9 816.8c0-5.252-4.27-9.516-9.518-9.516h-54.431c-5.252 0-9.516 4.264-9.516 9.516v54.167c0 5.252 4.264 9.516 9.516 9.516h54.431c5.248 0 9.518-4.264 9.518-9.516v-54.167z" fill="#29ac37" stroke="#29ac37" stroke-width="2px"/><g transform="matrix(.68638 0 0 .68638 339.25 170.87)"><g transform="translate(.11705 -1.8781)" fill="none" stroke="#29ac37" stroke-width="4.37px"><path d="m437.9 985.14c-8.713 0.039-9.553 19.192 3.247 19.532 13.799 0.36 11.854-19.337 3.214-19.532"/><path d="m441.05 996.54v-14.637"/></g><g transform="translate(39.416 -.95641)"><path d="m489.59 981.9 1.911 5.777 3.684-1.786-0.591 3.992h6.185l-5.004 3.57 2.867 2.888-4.048 0.682 1.911 5.782-5.004-3.575-1.911 3.575-1.911-3.575-5.004 3.575 1.911-5.782-4.048-0.682 2.867-2.888-5.004-3.57h6.185l-0.591-3.992 3.684 1.786 1.911-5.777z" fill="#29ac37" stroke="#29ac37" stroke-width="1.46px"/></g><g transform="translate(164.25 -.29638)" fill="none" stroke="#29ac37" stroke-width="4.37px"><path d="m532.5 1001.6c3.037-3.06 6.083-2.457 9.134 0"/><path d="m529.22 994.65c5.176-3.942 10.31-3.82 15.405 0"/><path d="m526.54 988.85c6.781-4.897 13.694-5.464 20.791 0"/></g><g transform="translate(-18.429 -1.8002)" fill="none" stroke="#29ac37" stroke-width="4.37px"><path d="m626.35 996.05h-3.276v-10.303h18.143v10.303h-3.033"/><path d="m626.3 1003.2h11.042-4.985v-7.799"/></g><g transform="matrix(1.4569 0 0 2.6111 -350.88 -1597.4)"><g transform="translate(0 96.259)"><rect x="803.72" y="895.02" width="12.343" height="4.453" fill="#29ac37" stroke="#29ac37" stroke-width=".52px"/></g><g transform="matrix(1 0 0 .7209 0 346.06)"><path d="m805.46 895.02c0.036-4.544 8.228-4.52 8.282 0" fill="none" stroke="#29ac37" stroke-width="1.73px"/></g></g></g><g transform="translate(319.46 -218.42)"><g transform="translate(-100.29 2.3366)" fill="#fff" fill-rule="nonzero"><path d="m413.37 1041.6v-2c0-0.2-0.035-0.33-0.103-0.39-0.068-0.07-0.202-0.1-0.401-0.1h-0.071v2.97h0.106c0.18 0 0.303-0.03 0.369-0.1s0.1-0.2 0.1-0.38zm-2.303 5.05v-8.64h2.015c0.692 0 1.199 0.13 1.521 0.38s0.483 0.65 0.483 1.19v1.84c0 0.67-0.159 1.15-0.477 1.44-0.319 0.28-0.855 0.43-1.609 0.43h-0.205v3.36h-1.728z"/><path d="m417 1041.1v4.18c0 0.15 0.021 0.26 0.064 0.33 0.043 0.06 0.113 0.09 0.211 0.09s0.168-0.03 0.211-0.09c0.043-0.07 0.064-0.18 0.064-0.33v-4.18c0-0.15-0.022-0.26-0.067-0.33-0.045-0.06-0.118-0.1-0.22-0.1-0.094 0-0.161 0.04-0.202 0.1s-0.061 0.17-0.061 0.33zm-1.536 0.47c0-0.72 0.14-1.23 0.419-1.52 0.28-0.3 0.74-0.45 1.38-0.45 0.641 0 1.101 0.15 1.38 0.45 0.279 0.29 0.419 0.8 0.419 1.52v3.31c0 0.71-0.14 1.21-0.419 1.51s-0.739 0.45-1.38 0.45c-0.64 0-1.1-0.15-1.38-0.45-0.279-0.3-0.419-0.8-0.419-1.51v-3.31z"/><path d="m420.14 1046.7-0.943-6.91h1.547l0.287 3.58c0.015 0.23 0.027 0.48 0.035 0.75s0.012 0.56 0.012 0.87h0.058c0.016-0.58 0.057-1.14 0.123-1.71 4e-3 -0.04 8e-3 -0.07 0.012-0.09l0.381-3.4h1.599l0.311 3.58c4e-3 0.04 0.013 0.23 0.026 0.59 0.014 0.35 0.029 0.7 0.044 1.03h0.065c0.023-0.51 0.06-1.04 0.111-1.58 0.012-0.11 0.018-0.18 0.018-0.21l0.31-3.41h1.477l-1.031 6.91h-1.764l-0.287-3.16c-8e-3 -0.1-0.018-0.3-0.03-0.59-0.011-0.29-0.023-0.63-0.035-1.01h-0.058c-0.02 0.51-0.059 1-0.117 1.47v0.02l-0.411 3.27h-1.74z"/><path d="m427.23 1041.1v1.3h0.551v-1.3c0-0.16-0.022-0.26-0.065-0.33-0.043-0.06-0.113-0.1-0.211-0.1-0.097 0-0.168 0.04-0.211 0.1-0.043 0.07-0.064 0.17-0.064 0.33zm0 4.18c0 0.15 0.021 0.26 0.064 0.33 0.043 0.06 0.114 0.09 0.211 0.09 0.098 0 0.168-0.03 0.211-0.09 0.043-0.07 0.065-0.18 0.065-0.33v-1.29h1.523v1.28c0 0.5-0.157 0.89-0.472 1.16-0.314 0.28-0.756 0.41-1.327 0.41-0.644 0-1.105-0.14-1.383-0.44-0.277-0.3-0.416-0.81-0.416-1.52v-3.31c0-0.73 0.137-1.24 0.411-1.53 0.273-0.3 0.732-0.44 1.377-0.44 0.566 0 1.009 0.13 1.33 0.39 0.32 0.27 0.48 0.63 0.48 1.1v2.34h-2.074v1.85z"/><path d="m429.79 1046.7v-6.91h1.5v0.58h0.023c0.129-0.24 0.283-0.42 0.463-0.54 0.18-0.11 0.389-0.17 0.627-0.17 0.332 0 0.581 0.1 0.747 0.3 0.166 0.19 0.249 0.49 0.249 0.88v2.67h-1.535v-2.17c0-0.16-0.021-0.26-0.062-0.32s-0.112-0.09-0.214-0.09c-0.093 0-0.163 0.04-0.208 0.1-0.045 0.07-0.067 0.17-0.067 0.31v5.36h-1.523z"/><path d="m469.78 1039.6c0-0.56 0.177-0.98 0.53-1.29 0.354-0.3 0.849-0.46 1.485-0.46 0.641 0 1.135 0.16 1.483 0.46 0.347 0.31 0.521 0.75 0.521 1.32v1.41h-1.716v-1.53c0-0.16-0.022-0.27-0.065-0.33s-0.117-0.09-0.223-0.09c-0.109 0-0.186 0.03-0.231 0.1-0.045 0.06-0.067 0.17-0.067 0.32v0.76c0 0.13 0.016 0.25 0.049 0.34 0.034 0.1 0.087 0.19 0.162 0.28l1.658 1.82c0.156 0.17 0.267 0.35 0.334 0.54 0.066 0.18 0.099 0.48 0.099 0.89v1.01c0 0.55-0.175 0.98-0.524 1.28-0.35 0.3-0.847 0.45-1.491 0.45-0.66 0-1.16-0.16-1.497-0.47-0.338-0.31-0.507-0.77-0.507-1.38v-1.62h1.717v1.74c0 0.15 0.022 0.25 0.067 0.32s0.122 0.1 0.231 0.1c0.102 0 0.175-0.03 0.22-0.1 0.045-0.06 0.068-0.17 0.068-0.32v-0.92c0-0.12-0.023-0.24-0.068-0.34-0.045-0.11-0.122-0.23-0.231-0.35l-1.559-1.77c-0.16-0.17-0.274-0.36-0.343-0.54-0.068-0.18-0.102-0.42-0.102-0.73v-0.13-0.77z"/><path d="m476.74 1046.7c-0.09 0.59-0.236 0.99-0.437 1.2s-0.528 0.31-0.981 0.31h-1.295v-1.11h0.65c0.102 0 0.175-0.02 0.22-0.05s0.067-0.09 0.067-0.17c0-0.02-4e-3 -0.07-0.011-0.14-8e-3 -0.06-0.024-0.19-0.047-0.37l-1.008-6.63h1.57l0.264 3.48c0.012 0.16 0.023 0.38 0.035 0.67 0.012 0.28 0.025 0.63 0.041 1.04h0.041c0.02-0.26 0.042-0.53 0.067-0.82 0.026-0.28 0.06-0.63 0.103-1.04l0.346-3.33h1.429l-1.054 6.96z"/><path d="m481.49 1045.2c0 0.51-0.155 0.91-0.463 1.18-0.309 0.28-0.754 0.41-1.336 0.41-0.57 0-1.015-0.13-1.333-0.41-0.319-0.28-0.478-0.67-0.478-1.16v-1.28h1.535v1.29c0 0.15 0.022 0.26 0.065 0.33 0.043 0.06 0.113 0.09 0.211 0.09 0.097 0 0.168-0.03 0.211-0.09 0.043-0.07 0.064-0.18 0.064-0.33v-0.62c0-0.28-0.254-0.63-0.761-1.03-0.11-0.09-0.196-0.16-0.258-0.21l-0.012-0.01c-0.703-0.58-1.055-1.16-1.055-1.75v-0.62c0-0.45 0.158-0.81 0.475-1.06 0.316-0.26 0.758-0.38 1.324-0.38 0.574 0 1.02 0.13 1.336 0.4 0.316 0.26 0.475 0.63 0.475 1.12v1.05h-1.524v-1.07c0-0.16-0.021-0.26-0.064-0.33-0.043-0.06-0.114-0.1-0.211-0.1-0.098 0-0.168 0.04-0.211 0.1-0.043 0.07-0.065 0.17-0.065 0.33v0.36c0 0.32 0.245 0.66 0.733 1.04 0.113 0.08 0.201 0.15 0.264 0.2 0.48 0.39 0.78 0.69 0.899 0.91 0.119 0.21 0.179 0.5 0.179 0.84v0.8z"/><path d="m481.68 1040.9v-1.11h0.387v-1.28h1.535v1.28h0.445v1.11h-0.445v4.2c0 0.21 0.026 0.35 0.079 0.41 0.053 0.05 0.157 0.08 0.313 0.08h0.053v1.11h-0.961c-0.371 0-0.634-0.08-0.788-0.25s-0.231-0.49-0.231-0.96v-4.59h-0.387z"/><path d="m485.81 1041.1v1.3h0.551v-1.3c0-0.16-0.022-0.26-0.065-0.33-0.043-0.06-0.113-0.1-0.211-0.1-0.097 0-0.168 0.04-0.211 0.1-0.043 0.07-0.064 0.17-0.064 0.33zm0 4.18c0 0.15 0.021 0.26 0.064 0.33 0.043 0.06 0.114 0.09 0.211 0.09 0.098 0 0.168-0.03 0.211-0.09 0.043-0.07 0.065-0.18 0.065-0.33v-1.29h1.523v1.28c0 0.5-0.157 0.89-0.472 1.16-0.314 0.28-0.756 0.41-1.327 0.41-0.644 0-1.105-0.14-1.383-0.44-0.277-0.3-0.416-0.81-0.416-1.52v-3.31c0-0.73 0.137-1.24 0.411-1.53 0.273-0.3 0.732-0.44 1.377-0.44 0.566 0 1.009 0.13 1.33 0.39 0.32 0.27 0.48 0.63 0.48 1.1v2.34h-2.074v1.85z"/><path d="m488.37 1046.7v-6.91h1.488v0.58h0.023c0.121-0.24 0.273-0.42 0.454-0.53 0.182-0.12 0.394-0.18 0.636-0.18 0.231 0 0.424 0.06 0.58 0.18s0.272 0.3 0.346 0.53h0.023c0.137-0.24 0.296-0.42 0.478-0.53 0.182-0.12 0.391-0.18 0.63-0.18 0.336 0 0.584 0.1 0.744 0.29s0.24 0.49 0.24 0.89v5.86h-1.529v-5.36c0-0.16-0.021-0.26-0.062-0.32s-0.112-0.09-0.214-0.09c-0.093 0-0.163 0.04-0.208 0.1-0.044 0.07-0.067 0.17-0.067 0.31v5.36h-1.5v-5.36c0-0.16-0.02-0.26-0.061-0.32s-0.113-0.09-0.214-0.09c-0.094 0-0.163 0.04-0.208 0.1-0.045 0.07-0.068 0.17-0.068 0.31v5.36h-1.511z"/><path d="m535.02 1046.7v-8.64h1.728v7.34h1.489v1.3h-3.217z"/><path d="m538.71 1046.7 1.383-8.64h2.209l1.02 8.64h-1.787l-0.17-2.3h-0.856l-0.223 2.3h-1.576zm1.934-3.57h0.639l-0.194-2.64c-0.011-0.14-0.021-0.41-0.029-0.8-4e-3 -0.17-6e-3 -0.3-6e-3 -0.39h-0.064c-0.016 0.33-0.03 0.6-0.041 0.79-0.012 0.2-0.022 0.33-0.03 0.39l-0.275 2.65z"/><path d="m543.66 1046.7v-8.64h2.367l0.609 3.66c0.055 0.33 0.102 0.7 0.141 1.11 0.039 0.4 0.072 0.87 0.099 1.39h0.071c-0.028-0.61-0.048-1.14-0.062-1.6-0.013-0.45-0.02-0.78-0.02-0.98l-0.012-3.58h1.354v8.64h-2.028l-0.885-4.69c-0.035-0.18-0.079-0.46-0.131-0.83-0.053-0.37-0.107-0.78-0.162-1.22h-0.046c0.023 0.36 0.042 0.67 0.055 0.94 0.014 0.27 0.021 0.49 0.021 0.67v5.13h-1.371z"/><path d="m591.79 1046.7-0.862-8.64h1.735l0.205 3.3c0.019 0.29 0.036 0.61 0.049 0.95 0.014 0.35 0.031 0.85 0.05 1.5h0.059c0.027-0.39 0.056-0.75 0.085-1.09 0.029-0.33 0.057-0.62 0.085-0.85l0.451-3.81h1.828l0.358 4.08c3e-3 0.07 0.021 0.29 0.052 0.67s0.059 0.72 0.082 1h0.059c0.015-0.48 0.034-0.92 0.056-1.32 0.021-0.41 0.045-0.8 0.073-1.18l0.269-3.25h1.448l-0.932 8.64h-1.992l-0.434-4.63c-0.015-0.16-0.03-0.36-0.044-0.57-0.013-0.22-0.026-0.5-0.038-0.84h-0.064l-0.61 6.04h-1.968z"/><path d="m598.33 1046.7v-8.64h1.728v7.34h1.488v1.3h-3.216z"/><path d="m602.02 1046.7 1.383-8.64h2.209l1.019 8.64h-1.787l-0.17-2.3h-0.855l-0.223 2.3h-1.576zm1.934-3.57h0.638l-0.193-2.64c-0.012-0.14-0.022-0.41-0.029-0.8-4e-3 -0.17-6e-3 -0.3-6e-3 -0.39h-0.065c-0.015 0.33-0.029 0.6-0.041 0.79-0.011 0.2-0.021 0.33-0.029 0.39l-0.275 2.65z"/><path d="m606.96 1046.7v-8.64h2.368l0.609 3.66c0.055 0.33 0.101 0.7 0.141 1.11 0.039 0.4 0.072 0.87 0.099 1.39h0.07c-0.027-0.61-0.047-1.14-0.061-1.6-0.014-0.45-0.021-0.78-0.021-0.98l-0.011-3.58h1.353v8.64h-2.027l-0.885-4.69c-0.035-0.18-0.079-0.46-0.132-0.83-0.052-0.37-0.106-0.78-0.161-1.22h-0.047c0.024 0.36 0.042 0.67 0.056 0.94s0.02 0.49 0.02 0.67v5.13h-1.371z"/><path d="m685.26 1039.5v5.64c0 0.15 0.023 0.26 0.068 0.32 0.044 0.07 0.118 0.1 0.219 0.1 0.11 0 0.187-0.03 0.232-0.1s0.067-0.17 0.067-0.32v-5.64c0-0.16-0.022-0.26-0.067-0.33-0.045-0.06-0.122-0.09-0.232-0.09-0.101 0-0.175 0.03-0.219 0.1-0.045 0.07-0.068 0.17-0.068 0.32zm-1.728 0.58c0-0.81 0.156-1.38 0.468-1.72 0.313-0.34 0.829-0.52 1.547-0.52 0.719 0 1.235 0.17 1.547 0.51 0.313 0.34 0.469 0.91 0.469 1.73v4.57c0 0.59-0.074 1.03-0.223 1.33-0.148 0.3-0.402 0.53-0.761 0.69 0 0.1 0.02 0.17 0.061 0.21s0.105 0.06 0.19 0.06h0.698v1.26h-1.067c-0.222 0-0.394-0.11-0.515-0.33s-0.182-0.53-0.182-0.94v-0.06c-0.066 0-0.127 0.01-0.182 0.01h-0.158c-0.652 0-1.131-0.18-1.435-0.53-0.305-0.36-0.457-0.93-0.457-1.7v-4.57z"/><path d="m688 1039.6c0-0.56 0.177-0.98 0.531-1.29 0.353-0.3 0.848-0.46 1.485-0.46 0.641 0 1.135 0.16 1.483 0.46 0.347 0.31 0.521 0.75 0.521 1.32v1.41h-1.717v-1.53c0-0.16-0.021-0.27-0.064-0.33s-0.117-0.09-0.223-0.09c-0.109 0-0.186 0.03-0.231 0.1-0.045 0.06-0.068 0.17-0.068 0.32v0.76c0 0.13 0.017 0.25 0.05 0.34 0.033 0.1 0.087 0.19 0.161 0.28l1.658 1.82c0.157 0.17 0.268 0.35 0.334 0.54 0.067 0.18 0.1 0.48 0.1 0.89v1.01c0 0.55-0.175 0.98-0.524 1.28-0.35 0.3-0.847 0.45-1.492 0.45-0.66 0-1.159-0.16-1.497-0.47s-0.507-0.77-0.507-1.38v-1.62h1.717v1.74c0 0.15 0.023 0.25 0.068 0.32s0.122 0.1 0.231 0.1c0.102 0 0.175-0.03 0.22-0.1 0.045-0.06 0.067-0.17 0.067-0.32v-0.92c0-0.12-0.022-0.24-0.067-0.34-0.045-0.11-0.122-0.23-0.232-0.35l-1.558-1.77c-0.16-0.17-0.275-0.36-0.343-0.54s-0.103-0.42-0.103-0.73v-0.13-0.77z"/><path d="m692.42 1039.6c0-0.56 0.177-0.98 0.531-1.29 0.353-0.3 0.848-0.46 1.485-0.46 0.641 0 1.135 0.16 1.482 0.46 0.348 0.31 0.522 0.75 0.522 1.32v1.41h-1.717v-1.53c0-0.16-0.021-0.27-0.064-0.33s-0.117-0.09-0.223-0.09c-0.109 0-0.186 0.03-0.231 0.1-0.045 0.06-0.068 0.17-0.068 0.32v0.76c0 0.13 0.017 0.25 0.05 0.34 0.033 0.1 0.087 0.19 0.161 0.28l1.658 1.82c0.157 0.17 0.268 0.35 0.334 0.54 0.067 0.18 0.1 0.48 0.1 0.89v1.01c0 0.55-0.175 0.98-0.524 1.28-0.35 0.3-0.847 0.45-1.492 0.45-0.66 0-1.159-0.16-1.497-0.47s-0.507-0.77-0.507-1.38v-1.62h1.717v1.74c0 0.15 0.023 0.25 0.068 0.32s0.122 0.1 0.231 0.1c0.102 0 0.175-0.03 0.22-0.1 0.045-0.06 0.067-0.17 0.067-0.32v-0.92c0-0.12-0.022-0.24-0.067-0.34-0.045-0.11-0.122-0.23-0.232-0.35l-1.558-1.77c-0.16-0.17-0.275-0.36-0.343-0.54s-0.103-0.42-0.103-0.73v-0.13-0.77z"/><path d="m743.58 1039.5v5.64c0 0.15 0.023 0.26 0.068 0.32 0.045 0.07 0.118 0.1 0.219 0.1 0.11 0 0.187-0.03 0.232-0.1s0.067-0.17 0.067-0.32v-5.64c0-0.16-0.022-0.26-0.067-0.33-0.045-0.06-0.122-0.09-0.232-0.09-0.101 0-0.174 0.03-0.219 0.1s-0.068 0.17-0.068 0.32zm-1.728 0.58c0-0.81 0.156-1.38 0.469-1.72 0.312-0.34 0.828-0.52 1.546-0.52 0.719 0 1.235 0.17 1.547 0.51 0.313 0.34 0.469 0.91 0.469 1.73v4.57c0 0.59-0.074 1.03-0.223 1.33-0.148 0.3-0.402 0.53-0.761 0.69 0 0.1 0.02 0.17 0.061 0.21s0.105 0.06 0.191 0.06h0.697v1.26h-1.066c-0.223 0-0.395-0.11-0.516-0.33s-0.182-0.53-0.182-0.94v-0.06c-0.066 0-0.127 0.01-0.181 0.01h-0.159c-0.652 0-1.13-0.18-1.435-0.53-0.305-0.36-0.457-0.93-0.457-1.7v-4.57z"/><path d="m746.32 1039.6c0-0.56 0.176-0.98 0.53-1.29 0.353-0.3 0.849-0.46 1.485-0.46 0.641 0 1.135 0.16 1.483 0.46 0.347 0.31 0.521 0.75 0.521 1.32v1.41h-1.717v-1.53c0-0.16-0.021-0.27-0.064-0.33s-0.117-0.09-0.223-0.09c-0.109 0-0.186 0.03-0.231 0.1-0.045 0.06-0.068 0.17-0.068 0.32v0.76c0 0.13 0.017 0.25 0.05 0.34 0.033 0.1 0.087 0.19 0.161 0.28l1.659 1.82c0.156 0.17 0.267 0.35 0.334 0.54 0.066 0.18 0.099 0.48 0.099 0.89v1.01c0 0.55-0.175 0.98-0.524 1.28-0.35 0.3-0.847 0.45-1.491 0.45-0.661 0-1.16-0.16-1.497-0.47-0.338-0.31-0.507-0.77-0.507-1.38v-1.62h1.716v1.74c0 0.15 0.023 0.25 0.068 0.32s0.122 0.1 0.231 0.1c0.102 0 0.175-0.03 0.22-0.1 0.045-0.06 0.067-0.17 0.067-0.32v-0.92c0-0.12-0.022-0.24-0.067-0.34-0.045-0.11-0.122-0.23-0.231-0.35l-1.559-1.77c-0.16-0.17-0.274-0.36-0.343-0.54-0.068-0.18-0.102-0.42-0.102-0.73v-0.13-0.77z"/><path d="m750.74 1039.6c0-0.56 0.176-0.98 0.53-1.29 0.353-0.3 0.849-0.46 1.485-0.46 0.641 0 1.135 0.16 1.483 0.46 0.347 0.31 0.521 0.75 0.521 1.32v1.41h-1.717v-1.53c0-0.16-0.021-0.27-0.064-0.33s-0.117-0.09-0.223-0.09c-0.109 0-0.186 0.03-0.231 0.1-0.045 0.06-0.068 0.17-0.068 0.32v0.76c0 0.13 0.017 0.25 0.05 0.34 0.033 0.1 0.087 0.19 0.161 0.28l1.659 1.82c0.156 0.17 0.267 0.35 0.334 0.54 0.066 0.18 0.099 0.48 0.099 0.89v1.01c0 0.55-0.175 0.98-0.524 1.28-0.35 0.3-0.847 0.45-1.491 0.45-0.661 0-1.16-0.16-1.498-0.47-0.337-0.31-0.506-0.77-0.506-1.38v-1.62h1.716v1.74c0 0.15 0.023 0.25 0.068 0.32s0.122 0.1 0.231 0.1c0.102 0 0.175-0.03 0.22-0.1 0.045-0.06 0.067-0.17 0.067-0.32v-0.92c0-0.12-0.022-0.24-0.067-0.34-0.045-0.11-0.122-0.23-0.231-0.35l-1.559-1.77c-0.16-0.17-0.274-0.36-0.343-0.54-0.068-0.18-0.102-0.42-0.102-0.73v-0.13-0.77z"/></g><g transform="translate(-234.09 60.075)"><ellipse cx="882.11" cy="1013.7" rx="10.926" ry="10.594" fill="#6c6c6c" stroke="#231f20" stroke-width="3.5px"/></g></g></g></svg>
