<?xml version="1.0" standalone="no"?>
<!DOCTYPE svg PUBLIC "-//W3C//DTD SVG 1.1//EN" "http://www.w3.org/Graphics/SVG/1.1/DTD/svg11.dtd">
<svg width="100%" height="100%" viewBox="0 0 1280 1150" version="1.1" xmlns="http://www.w3.org/2000/svg" xmlns:xlink="http://www.w3.org/1999/xlink" xml:space="preserve" style="fill-rule:evenodd;clip-rule:evenodd;stroke-linecap:round;stroke-linejoin:round;stroke-miterlimit:1.41421;">
    <g id="Netgear Front">
        <g transform="matrix(7.63715,0,0,1,-863.442,0)">
            <rect x="130.092" y="641.887" width="137.214" height="123.814" style="fill:rgb(43,47,48);stroke-width:0.18px;stroke:black;"/>
        </g>
        <g id="boden">
            <rect x="1122.6" y="766.36" width="49.355" height="8.411" style="fill:black;stroke-width:1px;stroke:black;"/>
            <g transform="matrix(1,0,0,1,-1016.77,0)">
                <rect x="1122.6" y="766.36" width="49.355" height="8.411" style="fill:black;stroke-width:1px;stroke:black;"/>
            </g>
            <rect x="64.872" y="727.852" width="79.556" height="32.669" style="fill:rgb(73,81,83);stroke-width:3px;stroke:black;"/>
            <g transform="matrix(1,0,0,1,1074.95,0)">
                <rect x="64.872" y="727.852" width="79.556" height="32.669" style="fill:rgb(73,81,83);stroke-width:3px;stroke:black;"/>
            </g>
            <rect x="45.343" y="757.801" width="1190.5" height="14.923" style="fill:rgb(73,81,83);stroke-width:3px;stroke:black;"/>
        </g>
        <path d="M107.462,624.844L1177.9,624.844C821.085,587.453 464.271,590.381 107.462,624.844Z" style="fill:rgb(98,96,98);stroke-width:3px;stroke:black;"/>
        <path d="M45.705,740.17L131.933,740.17C138.759,740.17 144.351,736.776 144.351,730.257L144.351,659.958C146.244,652.499 151.473,649.886 158.39,649.724L1123.31,649.724C1134.12,649.214 1139.38,652.731 1139.5,659.958L1139.5,731.857C1139.5,735.254 1142.61,740.17 1147.81,740.17L1233.2,740.17L1233.2,624.844L45.705,624.844L45.705,740.17Z" style="fill:rgb(34,36,32);stroke-width:2.5px;stroke:rgb(1,0,0);"/>
        <g id="red">
            <path d="M144.598,659.958C146.068,654.338 149.674,650.278 158.39,649.947L1125.97,649.947C1133.74,650.026 1138.98,652.562 1139.24,659.958L1139.24,732.227L144.598,732.227L144.598,659.958Z" style="fill:rgb(43,44,48);"/>
            <path d="M1126.15,649.95L1126.34,649.953L1126.52,649.957L1126.69,649.962L1126.87,649.968L1127.05,649.975L1127.22,649.983L1127.4,649.992L1127.57,650.001L1127.75,650.012L1127.92,650.024L1128.09,650.036L1128.26,650.05L1128.43,650.065L1128.6,650.08L1128.76,650.097L1128.93,650.114L1129.09,650.133L1129.26,650.153L1129.42,650.173L1129.58,650.195L1129.74,650.218L1129.9,650.242L1130.06,650.267L1130.22,650.293L1130.37,650.32L1130.53,650.348L1130.68,650.377L1130.83,650.407L1130.99,650.439L1131.14,650.471L1131.29,650.505L1131.43,650.539L1131.58,650.575L1131.73,650.612L1131.87,650.65L1132.02,650.69L1132.16,650.73L1132.3,650.772L1132.44,650.814L1132.58,650.858L1132.71,650.903L1132.85,650.95L1132.99,650.997L1133.12,651.046L1133.25,651.096L1133.38,651.147L1133.52,651.199L1133.64,651.253L1133.77,651.308L1133.9,651.364L1134.02,651.421L1134.15,651.48L1134.27,651.539L1134.39,651.601L1134.51,651.663L1134.63,651.727L1134.75,651.792L1134.86,651.858L1134.98,651.925L1135.09,651.994L1135.2,652.064L1135.31,652.136L1135.42,652.209L1135.53,652.283L1135.64,652.359L1135.74,652.435L1135.84,652.514L1135.95,652.593L1136.05,652.674L1136.15,652.757L1136.24,652.84L1136.34,652.926L1136.44,653.012L1136.53,653.1L1136.62,653.189L1136.71,653.28L1136.8,653.372L1136.89,653.466L1136.98,653.561L1137.06,653.658L1137.14,653.756L1137.23,653.855L1137.31,653.956L1137.38,654.059L1137.46,654.163L1137.54,654.268L1137.61,654.375L1137.68,654.483L1137.76,654.593L1137.83,654.705L1137.89,654.818L1137.96,654.932L1138.02,655.048L1138.09,655.166L1138.15,655.285L1138.21,655.405L1138.27,655.528L1138.33,655.652L1138.38,655.777L1138.43,655.904L1138.49,656.033L1138.54,656.163L1138.58,656.295L1138.63,656.428L1138.68,656.563L1138.72,656.7L1138.76,656.838L1138.8,656.978L1138.84,657.119L1138.88,657.263L1138.91,657.408L1138.95,657.554L1138.98,657.702L1139.01,657.852L1139.04,658.004L1139.06,658.157L1139.09,658.312L1139.11,658.469L1139.13,658.628L1139.15,658.788L1139.17,658.95L1139.18,659.113L1139.2,659.279L1139.21,659.446L1139.22,659.615L1139.23,659.785L1139.24,659.958L1139.24,732.227L144.598,732.227L144.598,659.958L144.633,659.826L144.669,659.695L144.705,659.565L144.742,659.436L144.78,659.306L144.819,659.178L144.859,659.05L144.9,658.923L144.941,658.796L144.983,658.67L145.026,658.545L145.07,658.42L145.115,658.296L145.161,658.172L145.208,658.05L145.255,657.928L145.304,657.806L145.353,657.685L145.404,657.565L145.455,657.446L145.507,657.327L145.56,657.209L145.615,657.092L145.67,656.975L145.726,656.859L145.783,656.744L145.841,656.63L145.9,656.516L145.961,656.403L146.022,656.291L146.084,656.18L146.147,656.069L146.212,655.959L146.277,655.85L146.344,655.742L146.411,655.634L146.48,655.528L146.55,655.422L146.621,655.316L146.693,655.212L146.766,655.109L146.84,655.006L146.915,654.904L146.992,654.803L147.07,654.703L147.148,654.604L147.228,654.505L147.31,654.408L147.392,654.311L147.476,654.215L147.56,654.12L147.646,654.026L147.734,653.933L147.822,653.841L147.912,653.749L148.003,653.659L148.095,653.569L148.189,653.481L148.283,653.393L148.379,653.306L148.477,653.22L148.575,653.136L148.675,653.052L148.777,652.969L148.879,652.887L148.983,652.806L149.088,652.726L149.195,652.647L149.303,652.569L149.412,652.492L149.523,652.416L149.635,652.341L149.749,652.267L149.864,652.194L149.98,652.122L150.098,652.051L150.217,651.981L150.338,651.912L150.46,651.845L150.583,651.778L150.708,651.712L150.835,651.648L150.963,651.584L151.092,651.522L151.223,651.461L151.356,651.401L151.489,651.341L151.625,651.283L151.762,651.227L151.9,651.171L152.041,651.116L152.182,651.063L152.325,651.011L152.47,650.959L152.617,650.909L152.764,650.861L152.914,650.813L153.065,650.766L153.218,650.721L153.372,650.677L153.528,650.634L153.686,650.592L153.845,650.552L154.006,650.512L154.169,650.474L154.333,650.437L154.499,650.402L154.667,650.367L154.836,650.334L155.008,650.302L155.18,650.271L155.355,650.242L155.531,650.214L155.709,650.187L155.889,650.161L156.071,650.137L156.254,650.114L156.439,650.092L156.626,650.072L156.815,650.053L157.005,650.035L157.197,650.018L157.391,650.003L157.587,649.989L157.785,649.977L157.985,649.966L158.186,649.956L158.39,649.947L1125.97,649.947L1126.15,649.95ZM158.421,651.448L158.253,651.454L158.063,651.464L157.874,651.474L157.687,651.486L157.502,651.499L157.32,651.513L157.139,651.529L156.96,651.545L156.783,651.563L156.608,651.583L156.435,651.603L156.264,651.624L156.094,651.647L155.927,651.671L155.762,651.696L155.598,651.722L155.436,651.749L155.276,651.778L155.118,651.807L154.962,651.838L154.808,651.87L154.655,651.902L154.504,651.936L154.356,651.971L154.208,652.007L154.063,652.044L153.92,652.082L153.778,652.121L153.637,652.161L153.499,652.202L153.362,652.244L153.227,652.287L153.094,652.331L152.963,652.376L152.833,652.422L152.704,652.469L152.578,652.517L152.453,652.566L152.329,652.615L152.208,652.666L152.087,652.717L151.968,652.77L151.852,652.823L151.736,652.877L151.622,652.932L151.509,652.988L151.398,653.044L151.288,653.102L151.18,653.161L151.073,653.22L150.968,653.28L150.864,653.341L150.761,653.402L150.66,653.465L150.561,653.528L150.462,653.592L150.364,653.658L150.269,653.723L150.174,653.79L150.081,653.857L149.989,653.926L149.898,653.995L149.808,654.064L149.72,654.135L149.633,654.206L149.547,654.279L149.462,654.352L149.378,654.426L149.295,654.5L149.214,654.576L149.133,654.652L149.054,654.729L148.976,654.807L148.899,654.885L148.822,654.965L148.748,655.045L148.673,655.126L148.6,655.208L148.528,655.29L148.457,655.374L148.387,655.458L148.318,655.543L148.25,655.629L148.182,655.716L148.116,655.803L148.051,655.892L147.986,655.981L147.922,656.071L147.86,656.162L147.798,656.253L147.737,656.346L147.677,656.439L147.618,656.533L147.56,656.628L147.502,656.724L147.446,656.821L147.39,656.918L147.335,657.016L147.281,657.115L147.228,657.215L147.175,657.316L147.123,657.418L147.073,657.52L147.023,657.623L146.973,657.727L146.925,657.832L146.877,657.938L146.83,658.044L146.784,658.152L146.739,658.26L146.694,658.368L146.651,658.478L146.608,658.589L146.565,658.7L146.524,658.812L146.483,658.925L146.443,659.038L146.404,659.153L146.365,659.268L146.327,659.384L146.29,659.5L146.253,659.617L146.218,659.736L146.183,659.855L146.148,659.974L146.115,660.094L146.098,660.155L146.098,730.727L1137.74,730.727L1137.74,659.988L1137.73,659.854L1137.73,659.7L1137.71,659.548L1137.7,659.398L1137.69,659.25L1137.68,659.104L1137.66,658.96L1137.64,658.818L1137.63,658.678L1137.61,658.54L1137.58,658.404L1137.56,658.27L1137.54,658.137L1137.51,658.007L1137.48,657.878L1137.45,657.752L1137.42,657.627L1137.39,657.504L1137.36,657.383L1137.32,657.263L1137.29,657.146L1137.25,657.03L1137.21,656.916L1137.17,656.803L1137.13,656.693L1137.09,656.584L1137.05,656.476L1137,656.371L1136.96,656.266L1136.91,656.164L1136.86,656.063L1136.81,655.964L1136.76,655.866L1136.71,655.769L1136.66,655.674L1136.6,655.58L1136.55,655.489L1136.49,655.398L1136.43,655.308L1136.37,655.22L1136.31,655.133L1136.25,655.048L1136.19,654.963L1136.12,654.88L1136.06,654.799L1135.99,654.718L1135.93,654.639L1135.86,654.56L1135.79,654.483L1135.71,654.407L1135.64,654.332L1135.57,654.258L1135.49,654.185L1135.42,654.113L1135.34,654.042L1135.26,653.973L1135.18,653.904L1135.1,653.836L1135.02,653.769L1134.93,653.704L1134.85,653.639L1134.76,653.575L1134.67,653.512L1134.58,653.45L1134.49,653.389L1134.4,653.329L1134.3,653.27L1134.21,653.212L1134.11,653.155L1134.01,653.099L1133.91,653.043L1133.81,652.989L1133.71,652.936L1133.6,652.883L1133.5,652.832L1133.39,652.781L1133.28,652.731L1133.17,652.682L1133.06,652.635L1132.95,652.588L1132.83,652.542L1132.72,652.497L1132.6,652.453L1132.48,652.41L1132.36,652.368L1132.24,652.326L1132.12,652.286L1131.99,652.247L1131.87,652.209L1131.74,652.171L1131.61,652.135L1131.48,652.099L1131.35,652.065L1131.22,652.031L1131.09,651.998L1130.95,651.967L1130.81,651.936L1130.68,651.906L1130.54,651.877L1130.4,651.85L1130.25,651.823L1130.11,651.797L1129.97,651.772L1129.82,651.748L1129.67,651.724L1129.53,651.702L1129.38,651.681L1129.22,651.661L1129.07,651.641L1128.92,651.623L1128.76,651.605L1128.61,651.589L1128.45,651.573L1128.29,651.559L1128.13,651.545L1127.97,651.532L1127.81,651.52L1127.65,651.509L1127.49,651.499L1127.32,651.489L1127.15,651.481L1126.99,651.474L1126.82,651.467L1126.65,651.461L1126.48,651.457L1126.31,651.453L1126.13,651.45L1125.96,651.448L158.421,651.448Z" style="fill:rgb(58,59,59);"/>
        </g>
        <g id="buttons" transform="matrix(0.950988,0,0,1,48.5574,0)">
            <path d="M1137.67,685.1C1137.67,677.997 1131.61,672.23 1124.14,672.23L1004.26,672.23C996.79,672.23 990.726,677.997 990.726,685.1L990.726,710.839C990.726,717.942 996.79,723.708 1004.26,723.708L1124.14,723.708C1131.61,723.708 1137.67,717.942 1137.67,710.839L1137.67,685.1Z" style="fill:rgb(43,47,48);stroke-width:3.07px;stroke:rgb(34,36,32);"/>
            <g transform="matrix(0.991738,0,0,1,9.33668,0)">
                <path d="M1130.03,685.726C1130.03,682.38 1127.15,679.665 1123.6,679.665L1070.62,679.665C1067.08,679.665 1064.2,682.38 1064.2,685.726L1064.2,711.978C1064.2,715.324 1067.08,718.039 1070.62,718.039L1123.6,718.039C1127.15,718.039 1130.03,715.324 1130.03,711.978L1130.03,685.726Z" style="fill:rgb(43,47,48);stroke-width:2.57px;stroke:rgb(34,36,32);"/>
            </g>
            <g transform="matrix(0.983475,0,0,1,-49.2524,0)">
                <path d="M1130.03,685.726C1130.03,682.38 1127.13,679.665 1123.55,679.665L1070.68,679.665C1067.1,679.665 1064.2,682.38 1064.2,685.726L1064.2,711.978C1064.2,715.324 1067.1,718.039 1070.68,718.039L1123.55,718.039C1127.13,718.039 1130.03,715.324 1130.03,711.978L1130.03,685.726Z" style="fill:rgb(43,47,48);stroke-width:2.07px;stroke:rgb(34,36,32);"/>
            </g>
        </g>
        <g id="Beschriftung" transform="matrix(1,0,0,1,0,185.87)">
            <g id="wifi">
                <path d="M1019.57,502.796C1013.58,508.899 1014.62,514.14 1019.57,518.901" style="fill:none;stroke-width:1.5px;stroke:rgb(157,157,155);"/>
                <path d="M1037.02,502.796C1041.43,508.555 1041.3,513.911 1037.02,518.901" style="fill:none;stroke-width:1.5px;stroke:rgb(157,157,155);"/>
                <ellipse cx="1027.76" cy="510.538" rx="1.654" ry="1.591" style="fill:rgb(157,157,155);stroke-width:1.5px;stroke:rgb(157,157,155);"/>
                <path d="M1023.6,506.896C1020.11,509.701 1020.33,512.351 1023.6,514.873" style="fill:none;stroke-width:1.5px;stroke:rgb(157,157,155);"/>
                <path d="M1032.74,506.896C1035.78,509.521 1035.6,512.182 1032.74,514.873" style="fill:none;stroke-width:1.5px;stroke:rgb(157,157,155);"/>
            </g>
            <g id="wifi secure" transform="matrix(1,0,0,1,63.4607,0)">
                <path d="M1019.57,502.796C1013.58,508.899 1014.62,514.14 1019.57,518.901" style="fill:none;stroke-width:1.5px;stroke:rgb(157,157,155);"/>
                <path d="M1037.02,502.796C1041.43,508.555 1041.3,513.911 1037.02,518.901" style="fill:none;stroke-width:1.5px;stroke:rgb(157,157,155);"/>
                <g transform="matrix(1,0,0,1,-1.75232,0)">
                    <path d="M1023.6,506.896C1020.11,509.701 1020.33,512.351 1023.6,514.873" style="fill:none;stroke-width:1.5px;stroke:rgb(157,157,155);"/>
                </g>
                <g transform="matrix(1,0,0,1,-68.9918,0)">
                    <rect x="1091.52" y="518.16" width="11.528" height="5.96" style="fill:rgb(157,157,155);stroke-width:1.5px;stroke:rgb(157,157,155);"/>
                </g>
                <g transform="matrix(1,0,0,1,-68.9918,0)">
                    <path d="M1093.85,518.137L1093.85,513.588C1093.85,510.4 1100.61,510.34 1100.61,513.588L1100.61,518.137L1093.85,518.137Z" style="fill:none;stroke-width:1.5px;stroke:rgb(157,157,155);"/>
                </g>
                <g transform="matrix(1,0,0,1,1.78727,0)">
                    <path d="M1032.74,506.896C1035.78,509.521 1035.6,512.182 1032.74,514.873" style="fill:none;stroke-width:1.5px;stroke:rgb(157,157,155);"/>
                </g>
            </g>
            <g id="usb" transform="matrix(1,0,0,1,329.663,0)">
                <ellipse cx="571.006" cy="512.691" rx="2.363" ry="2.68" style="fill:rgb(157,157,155);stroke-width:1.5px;stroke:rgb(157,157,155);"/>
                <path d="M571.367,512.64L591.021,512.64L589.102,510.702L589.102,514.443L591.021,512.64L576.604,512.64C577.242,508.629 580.24,506.696 585.494,506.755L587.709,506.755L585.494,504.967L585.494,508.697L585.494,506.755C580.558,506.702 577.332,508.395 576.604,512.64C578.665,517.021 582.148,519.272 587.709,518.411L587.709,516.448L589.102,518.411L587.709,520.46L587.709,518.411" style="fill:none;stroke-width:1.5px;stroke:rgb(157,157,155);"/>
                <path d="M587.709,506.844L585.494,508.697" style="fill:none;stroke-width:1.5px;stroke:rgb(157,157,155);"/>
            </g>
            <g transform="matrix(1,0,0,1,63.2202,0)">
                <g transform="matrix(1,0,0,1,2.23067,-1.08274)">
                    <path d="M430.898,509.026C430.898,508.754 430.855,508.555 430.769,508.43C430.683,508.305 430.551,508.242 430.372,508.242C430.178,508.242 430.042,508.299 429.963,508.414C429.885,508.529 429.845,508.733 429.845,509.026L429.845,511.916L426.719,511.916L426.719,510.09C426.719,508.6 427.004,507.546 427.573,506.926C428.143,506.307 429.09,505.997 430.415,505.997C431.653,505.997 432.579,506.3 433.191,506.905C433.804,507.51 434.11,508.425 434.11,509.649C434.11,511.082 433.351,512.954 431.832,515.267C431.539,515.726 431.317,516.073 431.166,516.309C430.629,517.155 430.264,517.819 430.071,518.302C429.877,518.786 429.781,519.228 429.781,519.629C429.781,519.665 429.784,519.711 429.791,519.768C429.799,519.826 429.802,519.869 429.802,519.897L434.131,519.897L434.131,522.185L426.698,522.185L426.698,519.564C426.698,518.92 426.812,518.279 427.041,517.641C427.271,517.004 427.736,516.141 428.438,515.053C428.596,514.809 428.821,514.465 429.115,514.021C430.304,512.21 430.898,510.956 430.898,510.262L430.898,509.026Z" style="fill:rgb(157,157,155);fill-rule:nonzero;"/>
                    <rect x="435.248" y="518.952" width="2.911" height="3.233" style="fill:rgb(157,157,155);fill-rule:nonzero;"/>
                    <path d="M442.951,522.185L442.951,518.265L438.793,518.265L438.793,516.009L441.812,506.341L446.098,506.341L446.098,516.009L447.065,516.009L447.065,518.265L446.098,518.265L446.098,522.185L442.951,522.185ZM441.21,516.009L443.058,516.009L443.08,511.25C443.08,511.042 443.097,510.67 443.133,510.133C443.169,509.596 443.219,508.994 443.284,508.328L443.08,508.328C442.929,509.187 442.704,510.238 442.403,511.481C442.102,512.723 441.705,514.233 441.21,516.009Z" style="fill:rgb(157,157,155);fill-rule:nonzero;"/>
                </g>
                <g transform="matrix(1.29,0,0,1,-94.7683,-1.08274)">
                    <path d="M426.524,514.488C426.524,513.545 426.705,512.875 427.067,512.478C427.43,512.082 428.032,511.884 428.875,511.884C429.664,511.884 430.253,512.067 430.643,512.434C431.032,512.801 431.227,513.353 431.227,514.092L431.227,515.602L429.224,515.602L429.224,513.811C429.224,513.634 429.198,513.508 429.145,513.435C429.093,513.363 429.003,513.326 428.875,513.326C428.757,513.326 428.672,513.365 428.619,513.442C428.567,513.52 428.54,513.643 428.54,513.811L428.54,520.394C428.54,520.572 428.567,520.699 428.619,520.774C428.672,520.849 428.757,520.887 428.875,520.887C429.003,520.887 429.093,520.848 429.145,520.77C429.198,520.693 429.224,520.568 429.224,520.394L429.224,518.617L428.718,518.617L428.718,517.058L431.227,517.058L431.227,522.185L430.236,522.185L430.106,521.557C429.873,521.853 429.616,522.074 429.333,522.22C429.051,522.365 428.739,522.438 428.397,522.438C427.773,522.438 427.304,522.22 426.992,521.782C426.68,521.345 426.524,520.686 426.524,519.807L426.524,514.488Z" style="fill:rgb(157,157,155);fill-rule:nonzero;"/>
                    <path d="M431.801,522.185L431.801,512.102L433.804,512.102L433.804,515.842L434.433,515.842L434.433,512.102L436.45,512.102L436.45,522.185L434.433,522.185L434.433,517.311L433.804,517.311L433.804,522.185L431.801,522.185Z" style="fill:rgb(157,157,155);fill-rule:nonzero;"/>
                    <path d="M436.88,522.185L436.88,520.784L438.35,515.452L436.928,515.452L436.928,514.119L440.271,514.119L440.271,515.281L438.733,520.825L440.271,520.825L440.271,522.185L436.88,522.185Z" style="fill:rgb(157,157,155);fill-rule:nonzero;"/>
                </g>
                <g transform="matrix(1.29,0,0,1,-36.9432,-1.08274)">
                    <path d="M426.524,514.488C426.524,513.545 426.705,512.875 427.067,512.478C427.43,512.082 428.032,511.884 428.875,511.884C429.664,511.884 430.253,512.067 430.643,512.434C431.032,512.801 431.227,513.353 431.227,514.092L431.227,515.602L429.224,515.602L429.224,513.811C429.224,513.634 429.198,513.508 429.145,513.435C429.093,513.363 429.003,513.326 428.875,513.326C428.757,513.326 428.672,513.365 428.619,513.442C428.567,513.52 428.54,513.643 428.54,513.811L428.54,520.394C428.54,520.572 428.567,520.699 428.619,520.774C428.672,520.849 428.757,520.887 428.875,520.887C429.003,520.887 429.093,520.848 429.145,520.77C429.198,520.693 429.224,520.568 429.224,520.394L429.224,518.617L428.718,518.617L428.718,517.058L431.227,517.058L431.227,522.185L430.236,522.185L430.106,521.557C429.873,521.853 429.616,522.074 429.333,522.22C429.051,522.365 428.739,522.438 428.397,522.438C427.773,522.438 427.304,522.22 426.992,521.782C426.68,521.345 426.524,520.686 426.524,519.807L426.524,514.488Z" style="fill:rgb(157,157,155);fill-rule:nonzero;"/>
                    <path d="M431.801,522.185L431.801,512.102L433.804,512.102L433.804,515.842L434.433,515.842L434.433,512.102L436.45,512.102L436.45,522.185L434.433,522.185L434.433,517.311L433.804,517.311L433.804,522.185L431.801,522.185Z" style="fill:rgb(157,157,155);fill-rule:nonzero;"/>
                    <path d="M436.88,522.185L436.88,520.784L438.35,515.452L436.928,515.452L436.928,514.119L440.271,514.119L440.271,515.281L438.733,520.825L440.271,520.825L440.271,522.185L436.88,522.185Z" style="fill:rgb(157,157,155);fill-rule:nonzero;"/>
                </g>
                <g transform="matrix(1,0,0,1,74.0184,-1.08274)">
                    <path d="M434.11,513.785L434.11,519.307C434.11,520.345 433.791,521.143 433.154,521.702C432.516,522.261 431.603,522.54 430.415,522.54C429.104,522.54 428.164,522.23 427.595,521.611C427.025,520.991 426.741,519.944 426.741,518.469L426.741,516.009L429.888,516.009L429.888,519.371C429.888,519.643 429.931,519.84 430.017,519.962C430.103,520.084 430.243,520.144 430.436,520.144C430.622,520.144 430.756,520.085 430.839,519.967C430.921,519.849 430.962,519.65 430.962,519.371L430.962,514.376C430.962,514.125 430.919,513.941 430.833,513.823C430.748,513.704 430.615,513.645 430.436,513.645C430.25,513.645 430.112,513.701 430.022,513.812C429.933,513.923 429.888,514.089 429.888,514.311L426.741,514.311L426.741,506.341L434.045,506.341L434.045,508.5L429.738,508.5L429.738,511.733C430.031,511.461 430.334,511.266 430.645,511.148C430.957,511.03 431.328,510.971 431.757,510.971C432.524,510.971 433.107,511.209 433.508,511.685C433.909,512.161 434.11,512.861 434.11,513.785Z" style="fill:rgb(157,157,155);fill-rule:nonzero;"/>
                </g>
            </g>
            <g transform="matrix(1,0,0,1,415.618,-1.08274)">
                <path d="M429.115,522.185L429.115,510.068L427.374,510.068L427.374,508.145L427.45,508.145C428.058,508.145 428.569,507.986 428.98,507.667C429.392,507.349 429.659,506.906 429.781,506.341L432.262,506.341L432.262,522.185L429.115,522.185Z" style="fill:rgb(157,157,155);fill-rule:nonzero;"/>
            </g>
            <g transform="matrix(1,0,0,1,349.091,-1.08274)">
                <path d="M430.898,509.026C430.898,508.754 430.855,508.555 430.769,508.43C430.683,508.305 430.551,508.242 430.372,508.242C430.178,508.242 430.042,508.299 429.963,508.414C429.885,508.529 429.845,508.733 429.845,509.026L429.845,511.916L426.719,511.916L426.719,510.09C426.719,508.6 427.004,507.546 427.573,506.926C428.143,506.307 429.09,505.997 430.415,505.997C431.653,505.997 432.579,506.3 433.191,506.905C433.804,507.51 434.11,508.425 434.11,509.649C434.11,511.082 433.351,512.954 431.832,515.267C431.539,515.726 431.317,516.073 431.166,516.309C430.629,517.155 430.264,517.819 430.071,518.302C429.877,518.786 429.781,519.228 429.781,519.629C429.781,519.665 429.784,519.711 429.791,519.768C429.799,519.826 429.802,519.869 429.802,519.897L434.131,519.897L434.131,522.185L426.698,522.185L426.698,519.564C426.698,518.92 426.812,518.279 427.041,517.641C427.271,517.004 427.736,516.141 428.438,515.053C428.596,514.809 428.821,514.465 429.115,514.021C430.304,512.21 430.898,510.956 430.898,510.262L430.898,509.026Z" style="fill:rgb(157,157,155);fill-rule:nonzero;"/>
            </g>
            <g transform="matrix(1,0,0,1,283.681,-1.08274)">
                <path d="M426.741,515.955L429.888,515.955L429.888,519.371C429.888,519.643 429.931,519.84 430.017,519.962C430.103,520.084 430.243,520.144 430.436,520.144C430.622,520.144 430.756,520.085 430.839,519.967C430.921,519.849 430.962,519.65 430.962,519.371L430.962,516.395C430.962,516.037 430.867,515.74 430.678,515.504C430.488,515.267 430.253,515.149 429.974,515.149L428.878,515.149L428.878,512.861L429.974,512.861C430.289,512.861 430.533,512.75 430.705,512.528C430.876,512.306 430.962,511.998 430.962,511.604L430.962,509.026C430.962,508.761 430.921,508.568 430.839,508.446C430.756,508.324 430.622,508.264 430.436,508.264C430.243,508.264 430.103,508.321 430.017,508.435C429.931,508.55 429.888,508.747 429.888,509.026L429.888,511.959L426.741,511.959L426.741,510.09C426.741,508.593 427.024,507.537 427.589,506.921C428.155,506.305 429.097,505.997 430.415,505.997C431.632,505.997 432.552,506.273 433.175,506.824C433.798,507.376 434.11,508.192 434.11,509.273L434.11,511.1C434.11,511.866 433.916,512.483 433.53,512.953C433.143,513.422 432.552,513.756 431.757,513.957C432.559,514.057 433.152,514.317 433.535,514.736C433.918,515.155 434.11,515.754 434.11,516.535L434.11,519.307C434.11,520.345 433.791,521.143 433.154,521.702C432.516,522.261 431.603,522.54 430.415,522.54C429.104,522.54 428.164,522.228 427.595,521.605C427.025,520.982 426.741,519.93 426.741,518.447L426.741,515.955Z" style="fill:rgb(157,157,155);fill-rule:nonzero;"/>
            </g>
            <g transform="matrix(1,0,0,1,215.456,-1.08274)">
                <path d="M430.415,522.185L430.415,518.265L426.257,518.265L426.257,516.009L429.276,506.341L433.562,506.341L433.562,516.009L434.529,516.009L434.529,518.265L433.562,518.265L433.562,522.185L430.415,522.185ZM428.674,516.009L430.522,516.009L430.543,511.25C430.543,511.042 430.561,510.67 430.597,510.133C430.633,509.596 430.683,508.994 430.748,508.328L430.543,508.328C430.393,509.187 430.167,510.238 429.867,511.481C429.566,512.723 429.168,514.233 428.674,516.009Z" style="fill:rgb(157,157,155);fill-rule:nonzero;"/>
            </g>
            <g id="online" transform="matrix(1,0,0,1,-200.289,0)">
                <ellipse cx="649.019" cy="512.278" rx="9.557" ry="9.754" style="fill:rgb(58,59,59);stroke-width:1.5px;stroke:rgb(157,157,155);"/>
                <path d="M639.222,510.138C634.846,512.997 634.214,515.404 635.255,516.842C638.233,521.082 645.716,519.778 652.917,511.973" style="fill:none;stroke-width:1.5px;stroke:rgb(157,157,155);"/>
            </g>
            <g id="power">
                <g transform="matrix(1,0,0,1,-0.146402,0)">
                    <ellipse cx="383.593" cy="513.473" rx="8.626" ry="8.604" style="fill:rgb(58,59,59);stroke-width:1.5px;stroke:rgb(157,157,155);"/>
                </g>
                <g transform="matrix(1,0,0,1,-0.609278,-0.501888)">
                    <path d="M385.973,503.47C385.973,502.918 385.526,502.471 384.974,502.471L382.977,502.471C382.425,502.471 381.978,502.918 381.978,503.47L381.978,514.245C381.978,514.796 382.425,515.244 382.977,515.244L384.974,515.244C385.526,515.244 385.973,514.796 385.973,514.245L385.973,503.47Z" style="fill:rgb(142,142,142);stroke-width:1.5px;stroke:rgb(58,59,59);"/>
                </g>
            </g>
        </g>
        <g id="led">
            <g transform="matrix(1,0,0,1,-0.560745,0.666739)">
                <path d="M386.864,739.79C386.864,739.616 386.723,739.476 386.55,739.476L380.197,739.476C380.024,739.476 379.883,739.616 379.883,739.79L379.883,750.145C379.883,750.318 380.024,750.459 380.197,750.459L386.55,750.459C386.723,750.459 386.864,750.318 386.864,750.145L386.864,739.79Z" style="fill:rgb(160,182,56);stroke-width:1.5px;stroke:rgb(61,98,55);"/>
            </g>
            <g transform="matrix(1,0,0,1,65.0003,0.666739)">
                <path d="M386.864,739.79C386.864,739.616 386.723,739.476 386.55,739.476L380.197,739.476C380.024,739.476 379.883,739.616 379.883,739.79L379.883,750.145C379.883,750.318 380.024,750.459 380.197,750.459L386.55,750.459C386.723,750.459 386.864,750.318 386.864,750.145L386.864,739.79Z" style="fill:rgb(160,182,56);stroke-width:1.5px;stroke:rgb(61,98,55);"/>
            </g>
            <g transform="matrix(1,0,0,1,197.366,0.666739)">
                <path d="M386.864,739.79C386.864,739.616 386.723,739.476 386.55,739.476L380.197,739.476C380.024,739.476 379.883,739.616 379.883,739.79L379.883,750.145C379.883,750.318 380.024,750.459 380.197,750.459L386.55,750.459C386.723,750.459 386.864,750.318 386.864,750.145L386.864,739.79Z" style="fill:rgb(147,181,218);stroke-width:1.5px;stroke:rgb(71,85,126);"/>
            </g>
            <g transform="matrix(1,0,0,1,130.843,0.666739)">
                <path d="M386.864,739.79C386.864,739.616 386.723,739.476 386.55,739.476L380.197,739.476C380.024,739.476 379.883,739.616 379.883,739.79L379.883,750.145C379.883,750.318 380.024,750.459 380.197,750.459L386.55,750.459C386.723,750.459 386.864,750.318 386.864,750.145L386.864,739.79Z" style="fill:rgb(160,182,56);stroke-width:1.5px;stroke:rgb(61,98,55);"/>
            </g>
            <g transform="matrix(1,0,0,1,263.368,0.666739)">
                <path d="M386.864,739.79C386.864,739.616 386.723,739.476 386.55,739.476L380.197,739.476C380.024,739.476 379.883,739.616 379.883,739.79L379.883,750.145C379.883,750.318 380.024,750.459 380.197,750.459L386.55,750.459C386.723,750.459 386.864,750.318 386.864,750.145L386.864,739.79Z" style="fill:rgb(160,182,56);stroke-width:1.5px;stroke:rgb(61,98,55);"/>
            </g>
            <g transform="matrix(1,0,0,1,329.506,0.666739)">
                <path d="M386.864,739.79C386.864,739.616 386.723,739.476 386.55,739.476L380.197,739.476C380.024,739.476 379.883,739.616 379.883,739.79L379.883,750.145C379.883,750.318 380.024,750.459 380.197,750.459L386.55,750.459C386.723,750.459 386.864,750.318 386.864,750.145L386.864,739.79Z" style="fill:rgb(160,182,56);stroke-width:1.5px;stroke:rgb(61,98,55);"/>
            </g>
            <g transform="matrix(1,0,0,1,396.025,0.666739)">
                <path d="M386.864,739.79C386.864,739.616 386.723,739.476 386.55,739.476L380.197,739.476C380.024,739.476 379.883,739.616 379.883,739.79L379.883,750.145C379.883,750.318 380.024,750.459 380.197,750.459L386.55,750.459C386.723,750.459 386.864,750.318 386.864,750.145L386.864,739.79Z" style="fill:rgb(160,182,56);stroke-width:1.5px;stroke:rgb(61,98,55);"/>
            </g>
            <g transform="matrix(1,0,0,1,462.488,0.666739)">
                <path d="M386.864,739.79C386.864,739.616 386.723,739.476 386.55,739.476L380.197,739.476C380.024,739.476 379.883,739.616 379.883,739.79L379.883,750.145C379.883,750.318 380.024,750.459 380.197,750.459L386.55,750.459C386.723,750.459 386.864,750.318 386.864,750.145L386.864,739.79Z" style="fill:rgb(160,182,56);stroke-width:1.5px;stroke:rgb(61,98,55);"/>
            </g>
            <g transform="matrix(1,0,0,1,528.296,0.666739)">
                <path d="M386.864,739.79C386.864,739.616 386.723,739.476 386.55,739.476L380.197,739.476C380.024,739.476 379.883,739.616 379.883,739.79L379.883,750.145C379.883,750.318 380.024,750.459 380.197,750.459L386.55,750.459C386.723,750.459 386.864,750.318 386.864,750.145L386.864,739.79Z" style="fill:rgb(160,182,56);stroke-width:1.5px;stroke:rgb(61,98,55);"/>
            </g>
            <g transform="matrix(1,0,0,1,644.677,0.666739)">
                <path d="M386.864,739.79C386.864,739.616 386.723,739.476 386.55,739.476L380.197,739.476C380.024,739.476 379.883,739.616 379.883,739.79L379.883,750.145C379.883,750.318 380.024,750.459 380.197,750.459L386.55,750.459C386.723,750.459 386.864,750.318 386.864,750.145L386.864,739.79Z" style="fill:rgb(160,182,56);stroke-width:1.5px;stroke:rgb(61,98,55);"/>
            </g>
            <g transform="matrix(1,0,0,1,708.955,0.666739)">
                <path d="M386.864,739.79C386.864,739.616 386.723,739.476 386.55,739.476L380.197,739.476C380.024,739.476 379.883,739.616 379.883,739.79L379.883,750.145C379.883,750.318 380.024,750.459 380.197,750.459L386.55,750.459C386.723,750.459 386.864,750.318 386.864,750.145L386.864,739.79Z" style="fill:rgb(160,182,56);stroke-width:1.5px;stroke:rgb(61,98,55);"/>
            </g>
            <g transform="matrix(0.624181,0,0,0.624181,-51.6837,-27.887)">
                <g transform="matrix(1.29,0,0,1,-48.4706,0)">
                    <path d="M173.744,259.091L173.744,68.087L244.837,68.087L244.837,94.633L211.945,94.633L211.945,138.661L244.06,138.661L244.06,166.244L211.945,166.244L211.945,259.091L173.744,259.091Z" style="fill:black;fill-rule:nonzero;"/>
                    <path d="M258.822,259.091L258.822,106.288L292.49,106.288L292.49,259.091L258.822,259.091ZM258.822,97.094L258.822,68.087L292.49,68.087L292.49,97.094L258.822,97.094Z" style="fill:black;fill-rule:nonzero;"/>
                    <path d="M303.627,259.091L303.627,106.288L336.777,106.288L336.777,119.108L337.295,119.108C340.144,113.755 343.554,109.806 347.525,107.259C351.497,104.712 356.115,103.439 361.381,103.439C368.719,103.439 374.223,105.619 377.892,109.978C381.561,114.338 383.395,120.834 383.395,129.467L383.395,188.517L349.468,188.517L349.468,140.604C349.468,137.064 349.015,134.669 348.108,133.417C347.202,132.165 345.626,131.539 343.382,131.539C341.31,131.539 339.777,132.273 338.785,133.741C337.792,135.208 337.295,137.496 337.295,140.604L337.295,259.091L303.627,259.091Z" style="fill:black;fill-rule:nonzero;"/>
                    <path d="M396.345,259.091L396.345,106.288L429.236,106.288L429.236,119.108L429.754,119.108C432.43,113.842 435.776,109.914 439.79,107.324C443.804,104.734 448.488,103.439 453.84,103.439C458.934,103.439 463.207,104.756 466.66,107.389C470.113,110.022 472.66,113.928 474.3,119.108L474.818,119.108C477.84,113.842 481.358,109.914 485.372,107.324C489.386,104.734 494.026,103.439 499.293,103.439C506.717,103.439 512.199,105.554 515.738,109.784C519.278,114.014 521.048,120.575 521.048,129.467L521.048,259.091L487.25,259.091L487.25,140.604C487.25,137.064 486.796,134.669 485.89,133.417C484.983,132.165 483.408,131.539 481.163,131.539C479.091,131.539 477.559,132.273 476.566,133.741C475.573,135.208 475.077,137.496 475.077,140.604L475.077,259.091L441.927,259.091L441.927,140.604C441.927,137.064 441.473,134.669 440.567,133.417C439.66,132.165 438.085,131.539 435.84,131.539C433.768,131.539 432.236,132.273 431.243,133.741C430.251,135.208 429.754,137.496 429.754,140.604L429.754,259.091L396.345,259.091Z" style="fill:black;fill-rule:nonzero;"/>
                    <path d="M544.745,259.091L523.896,106.288L558.083,106.288L564.428,185.409C564.773,190.416 565.032,195.941 565.205,201.984C565.378,208.027 565.464,214.415 565.464,221.149L566.759,221.149C567.104,208.459 568.011,195.898 569.478,183.466C569.565,182.517 569.651,181.826 569.737,181.394L578.154,106.288L613.506,106.288L620.369,185.409C620.456,186.186 620.65,190.502 620.952,198.358C621.254,206.214 621.578,213.811 621.923,221.149L623.348,221.149C623.866,209.84 624.686,198.186 625.808,186.186C626.067,183.769 626.197,182.258 626.197,181.653L633.06,106.288L665.692,106.288L642.901,259.091L603.924,259.091L597.579,189.035C597.406,186.876 597.19,182.56 596.931,176.085C596.672,169.61 596.413,162.186 596.154,153.812L594.859,153.812C594.427,165.121 593.564,175.913 592.269,186.186L592.269,186.704L583.205,259.091L544.745,259.091Z" style="fill:black;fill-rule:nonzero;"/>
                    <path d="M713.994,224.645L713.994,184.114C713.476,184.459 712.785,184.977 711.922,185.668C705.188,190.848 701.821,195.423 701.821,199.394L701.821,224.645C701.821,228.099 702.274,230.451 703.181,231.703C704.087,232.955 705.663,233.581 707.907,233.581C709.979,233.581 711.512,232.868 712.505,231.444C713.497,230.019 713.994,227.753 713.994,224.645ZM667.894,137.625C667.894,126.057 671.239,117.338 677.93,111.468C684.62,105.597 694.526,102.662 707.648,102.662C721.979,102.662 732.188,105.921 738.274,112.439C744.36,118.957 747.403,130.201 747.403,146.172L747.403,239.149C747.403,243.206 747.597,246.811 747.986,249.962C748.374,253.113 749,256.156 749.864,259.091L715.677,259.091C715.245,257.278 714.9,255.443 714.641,253.587C714.382,251.731 714.253,250.026 714.253,248.472L714.253,246.141L713.735,246.141C711.317,251.149 708.059,254.99 703.958,257.666C699.857,260.343 695.088,261.681 689.649,261.681C682.483,261.681 677.066,259.523 673.397,255.206C669.728,250.89 667.894,244.501 667.894,236.041L667.894,203.667C667.894,195.639 669.34,189.099 672.232,184.049C675.124,178.999 679.764,174.747 686.152,171.294C688.224,170.172 691.16,168.661 694.958,166.762C707.648,160.287 713.994,154.114 713.994,148.244L713.994,137.366C713.994,134.086 713.497,131.712 712.505,130.244C711.512,128.777 709.893,128.043 707.648,128.043C705.577,128.043 704.087,128.777 703.181,130.244C702.274,131.712 701.821,134.086 701.821,137.366L701.821,159.639L667.894,159.639L667.894,137.625Z" style="fill:black;fill-rule:nonzero;"/>
                    <path d="M758.281,259.091L758.281,106.288L791.431,106.288L791.431,119.108L791.949,119.108C794.798,113.755 798.208,109.806 802.179,107.259C806.15,104.712 810.769,103.439 816.035,103.439C823.373,103.439 828.877,105.619 832.546,109.978C836.215,114.338 838.049,120.834 838.049,129.467L838.049,188.517L804.122,188.517L804.122,140.604C804.122,137.064 803.668,134.669 802.762,133.417C801.855,132.165 800.28,131.539 798.035,131.539C795.963,131.539 794.431,132.273 793.438,133.741C792.446,135.208 791.949,137.496 791.949,140.604L791.949,259.091L758.281,259.091Z" style="fill:black;fill-rule:nonzero;"/>
                    <path d="M884.149,135.813L884.149,164.69L896.321,164.69L896.321,135.813C896.321,132.446 895.847,130.05 894.897,128.626C893.947,127.201 892.393,126.489 890.235,126.489C888.077,126.489 886.523,127.201 885.573,128.626C884.624,130.05 884.149,132.446 884.149,135.813ZM884.149,228.271C884.149,231.638 884.624,234.034 885.573,235.458C886.523,236.883 888.077,237.595 890.235,237.595C892.393,237.595 893.947,236.883 894.897,235.458C895.847,234.034 896.321,231.638 896.321,228.271L896.321,199.653L929.99,199.653L929.99,228.012C929.99,239.062 926.515,247.631 919.566,253.717C912.616,259.803 902.839,262.846 890.235,262.846C875.991,262.846 865.804,259.566 859.675,253.005C853.545,246.444 850.48,235.221 850.48,219.336L850.48,146.172C850.48,130.115 853.502,118.849 859.545,112.374C865.588,105.899 875.732,102.662 889.976,102.662C902.494,102.662 912.292,105.576 919.371,111.403C926.45,117.23 929.99,125.28 929.99,135.554L929.99,187.481L884.149,187.481L884.149,228.271Z" style="fill:black;fill-rule:nonzero;"/>
                    <rect x="993.053" y="169.74" width="47.265" height="26.028" style="fill:black;fill-rule:nonzero;"/>
                    <path d="M1155.31,221.408L1155.31,181.394C1155.31,177.51 1154.51,174.769 1152.91,173.172C1151.32,171.574 1148.58,170.776 1144.69,170.776L1142.62,170.776L1142.62,232.027L1144.69,232.027C1148.58,232.027 1151.32,231.228 1152.91,229.631C1154.51,228.034 1155.31,225.293 1155.31,221.408ZM1155.31,133.611L1155.31,103.18C1155.31,98.864 1154.51,95.972 1152.91,94.504C1151.32,93.036 1147.88,92.303 1142.62,92.303L1142.62,144.748C1147.8,144.748 1151.21,143.992 1152.85,142.481C1154.49,140.971 1155.31,138.014 1155.31,133.611ZM1104.42,259.091L1104.42,68.087L1148.96,68.087C1163.9,68.087 1175.01,70.785 1182.31,76.181C1189.6,81.576 1193.25,89.756 1193.25,100.72L1193.25,123.252C1193.25,133.525 1191.09,141.079 1186.78,145.913C1182.46,150.748 1174.82,154.244 1163.86,156.402L1163.86,157.438C1173.78,158.301 1181.16,161.258 1186,166.308C1190.83,171.359 1193.25,178.675 1193.25,188.258L1193.25,217.782C1193.25,232.804 1189.71,243.444 1182.63,249.703C1175.55,255.961 1163.47,259.091 1146.37,259.091L1104.42,259.091Z" style="fill:black;fill-rule:nonzero;"/>
                    <path d="M1283.38,106.288L1283.38,259.091L1250.23,259.091L1250.23,246.4L1249.45,246.4C1246.6,251.667 1243.26,255.53 1239.42,257.99C1235.57,260.451 1230.98,261.681 1225.62,261.681C1218.29,261.681 1212.78,259.544 1209.11,255.271C1205.44,250.998 1203.61,244.588 1203.61,236.041L1203.61,106.288L1237.28,106.288L1237.28,224.904C1237.28,228.271 1237.78,230.602 1238.77,231.897C1239.76,233.192 1241.38,233.84 1243.62,233.84C1245.7,233.84 1247.19,233.149 1248.09,231.768C1249,230.386 1249.45,228.099 1249.45,224.904L1249.45,106.288L1283.38,106.288Z" style="fill:black;fill-rule:nonzero;"/>
                    <path d="M1327.15,205.739C1327.15,209.279 1327.6,211.718 1328.51,213.056C1329.41,214.394 1330.99,215.063 1333.23,215.063C1335.31,215.063 1336.84,214.308 1337.83,212.797C1338.82,211.286 1339.32,208.934 1339.32,205.739L1339.32,139.438C1339.32,136.331 1338.82,134.064 1337.83,132.64C1336.84,131.215 1335.31,130.503 1333.23,130.503C1330.99,130.503 1329.41,131.129 1328.51,132.381C1327.6,133.633 1327.15,135.985 1327.15,139.438L1327.15,205.739ZM1339.32,225.422L1338.8,225.422C1336.38,231.12 1333.21,235.372 1329.29,238.178C1325.36,240.983 1320.59,242.386 1314.98,242.386C1307.55,242.386 1302.11,240.336 1298.66,236.235C1295.21,232.135 1293.48,225.595 1293.48,216.617L1293.48,127.266C1293.48,119.583 1295.34,113.691 1299.05,109.59C1302.76,105.489 1308.16,103.439 1315.24,103.439C1320.59,103.439 1325.21,104.691 1329.09,107.194C1332.98,109.698 1336.38,113.669 1339.32,119.108L1340.1,119.108L1340.1,106.288L1372.99,106.288L1372.99,250.026C1372.99,265.997 1369.92,277.242 1363.8,283.76C1357.67,290.277 1347.48,293.536 1333.23,293.536C1320.63,293.536 1310.85,290.493 1303.9,284.407C1296.95,278.321 1293.48,269.796 1293.48,258.832L1293.48,247.177L1327.15,247.177L1327.15,259.091C1327.15,262.458 1327.62,264.853 1328.57,266.278C1329.52,267.702 1331.08,268.414 1333.23,268.414C1335.39,268.414 1336.95,267.681 1337.9,266.213C1338.85,264.745 1339.32,262.371 1339.32,259.091L1339.32,225.422Z" style="fill:black;fill-rule:nonzero;"/>
                </g>
                <g transform="matrix(1.29,0,0,1,-48.4706,0)">
                    <path d="M241.988,371.177C232.319,388.098 225.067,405.752 220.233,424.14C215.398,442.529 212.981,461.478 212.981,480.988C212.981,500.671 215.398,519.707 220.233,538.095C225.067,556.483 232.319,574.138 241.988,591.058L211.686,591.058C200.809,571.72 192.78,553.116 187.6,535.246C182.42,517.376 179.831,499.29 179.831,480.988C179.831,463.032 182.442,445.118 187.665,427.248C192.888,409.378 200.981,390.688 211.945,371.177L241.988,371.177Z" style="fill:black;fill-rule:nonzero;"/>
                    <path d="M250.146,562.181L250.146,409.378L283.296,409.378L283.296,422.198L283.814,422.198C286.663,416.846 290.073,412.896 294.044,410.349C298.016,407.803 302.634,406.529 307.9,406.529C315.238,406.529 320.742,408.709 324.411,413.069C328.08,417.428 329.914,423.925 329.914,432.557L329.914,562.181L295.987,562.181L295.987,443.694C295.987,440.154 295.534,437.759 294.627,436.507C293.721,435.255 292.145,434.629 289.901,434.629C287.829,434.629 286.296,435.363 285.304,436.831C284.311,438.298 283.814,440.586 283.814,443.694L283.814,562.181L250.146,562.181Z" style="fill:black;fill-rule:nonzero;"/>
                    <path d="M373.942,438.903L373.942,531.361C373.942,534.728 374.417,537.124 375.367,538.548C376.316,539.973 377.87,540.685 380.028,540.685C382.187,540.685 383.741,539.973 384.69,538.548C385.64,537.124 386.115,534.728 386.115,531.361L386.115,438.903C386.115,435.622 385.618,433.248 384.625,431.781C383.633,430.313 382.014,429.579 379.769,429.579C377.698,429.579 376.208,430.27 375.302,431.651C374.395,433.032 373.942,435.45 373.942,438.903ZM340.015,449.262C340.015,433.464 343.101,422.263 349.274,415.659C355.446,409.054 365.611,405.752 379.769,405.752C393.927,405.752 404.093,409.054 410.265,415.659C416.438,422.263 419.524,433.464 419.524,449.262L419.524,522.426C419.524,538.138 416.438,549.318 410.265,555.965C404.093,562.613 393.927,565.936 379.769,565.936C365.611,565.936 355.446,562.613 349.274,555.965C343.101,549.318 340.015,538.138 340.015,522.426L340.015,449.262Z" style="fill:black;fill-rule:nonzero;"/>
                    <path d="M430.143,562.181L430.143,409.378L463.293,409.378L463.293,422.198L463.811,422.198C466.66,416.846 470.07,412.896 474.041,410.349C478.012,407.803 482.631,406.529 487.897,406.529C495.235,406.529 500.739,408.709 504.408,413.069C508.077,417.428 509.911,423.925 509.911,432.557L509.911,491.607L475.984,491.607L475.984,443.694C475.984,440.154 475.53,437.759 474.624,436.507C473.717,435.255 472.142,434.629 469.897,434.629C467.825,434.629 466.293,435.363 465.3,436.831C464.308,438.298 463.811,440.586 463.811,443.694L463.811,562.181L430.143,562.181Z" style="fill:black;fill-rule:nonzero;"/>
                    <path d="M522.86,562.181L522.86,409.378L555.752,409.378L555.752,422.198L556.27,422.198C558.946,416.932 562.291,413.004 566.306,410.414C570.32,407.824 575.003,406.529 580.356,406.529C585.449,406.529 589.723,407.846 593.176,410.479C596.629,413.112 599.176,417.018 600.816,422.198L601.334,422.198C604.355,416.932 607.873,413.004 611.888,410.414C615.902,407.824 620.542,406.529 625.808,406.529C633.233,406.529 638.714,408.644 642.254,412.874C645.793,417.105 647.563,423.666 647.563,432.557L647.563,562.181L613.765,562.181L613.765,443.694C613.765,440.154 613.312,437.759 612.406,436.507C611.499,435.255 609.924,434.629 607.679,434.629C605.607,434.629 604.075,435.363 603.082,436.831C602.089,438.298 601.593,440.586 601.593,443.694L601.593,562.181L568.442,562.181L568.442,443.694C568.442,440.154 567.989,437.759 567.083,436.507C566.176,435.255 564.601,434.629 562.356,434.629C560.284,434.629 558.752,435.363 557.759,436.831C556.766,438.298 556.27,440.586 556.27,443.694L556.27,562.181L522.86,562.181Z" style="fill:black;fill-rule:nonzero;"/>
                    <path d="M703.634,527.736L703.634,487.204C703.116,487.549 702.426,488.067 701.562,488.758C694.829,493.938 691.462,498.513 691.462,502.484L691.462,527.736C691.462,531.189 691.915,533.541 692.821,534.793C693.728,536.045 695.303,536.671 697.548,536.671C699.62,536.671 701.152,535.959 702.145,534.534C703.138,533.11 703.634,530.844 703.634,527.736ZM657.534,440.716C657.534,429.147 660.88,420.428 667.57,414.558C674.261,408.687 684.167,405.752 697.289,405.752C711.62,405.752 721.828,409.011 727.914,415.529C734.001,422.047 737.044,433.291 737.044,449.262L737.044,542.239C737.044,546.296 737.238,549.901 737.626,553.052C738.015,556.203 738.641,559.246 739.504,562.181L705.318,562.181C704.886,560.368 704.541,558.534 704.282,556.678C704.023,554.822 703.893,553.116 703.893,551.563L703.893,549.232L703.375,549.232C700.958,554.239 697.699,558.08 693.598,560.757C689.498,563.433 684.728,564.771 679.289,564.771C672.124,564.771 666.707,562.613 663.038,558.296C659.369,553.98 657.534,547.591 657.534,539.131L657.534,506.758C657.534,498.729 658.98,492.19 661.872,487.139C664.764,482.089 669.405,477.837 675.793,474.384C677.865,473.262 680.8,471.751 684.599,469.852C697.289,463.377 703.634,457.205 703.634,451.334L703.634,440.457C703.634,437.176 703.138,434.802 702.145,433.334C701.152,431.867 699.534,431.133 697.289,431.133C695.217,431.133 693.728,431.867 692.821,433.334C691.915,434.802 691.462,437.176 691.462,440.457L691.462,462.73L657.534,462.73L657.534,440.716Z" style="fill:black;fill-rule:nonzero;"/>
                    <rect x="747.921" y="371.177" width="33.668" height="191.004" style="fill:black;fill-rule:nonzero;"/>
                    <path d="M876.25,508.83C876.25,512.369 876.703,514.808 877.609,516.146C878.516,517.484 880.091,518.153 882.336,518.153C884.408,518.153 885.94,517.398 886.933,515.887C887.926,514.376 888.422,512.024 888.422,508.83L888.422,442.529C888.422,439.421 887.926,437.155 886.933,435.73C885.94,434.306 884.408,433.593 882.336,433.593C880.091,433.593 878.516,434.219 877.609,435.471C876.703,436.723 876.25,439.075 876.25,442.529L876.25,508.83ZM888.422,528.513L887.904,528.513C885.487,534.21 882.314,538.462 878.386,541.268C874.458,544.073 869.689,545.476 864.077,545.476C856.653,545.476 851.214,543.426 847.761,539.325C844.308,535.225 842.581,528.685 842.581,519.707L842.581,430.356C842.581,422.673 844.437,416.781 848.15,412.68C851.862,408.58 857.257,406.529 864.336,406.529C869.689,406.529 874.307,407.781 878.192,410.285C882.077,412.788 885.487,416.759 888.422,422.198L889.199,422.198L889.199,409.378L922.091,409.378L922.091,553.116C922.091,569.087 919.026,580.332 912.897,586.85C906.767,593.368 896.58,596.627 882.336,596.627C869.732,596.627 859.955,593.583 853.006,587.497C846.056,581.411 842.581,572.886 842.581,561.922L842.581,550.268L876.25,550.268L876.25,562.181C876.25,565.548 876.725,567.944 877.674,569.368C878.624,570.792 880.178,571.505 882.336,571.505C884.494,571.505 886.048,570.771 886.998,569.303C887.947,567.836 888.422,565.462 888.422,562.181L888.422,528.513Z" style="fill:black;fill-rule:nonzero;"/>
                    <path d="M966.119,438.903L966.119,467.78L978.291,467.78L978.291,438.903C978.291,435.536 977.816,433.14 976.867,431.716C975.917,430.291 974.363,429.579 972.205,429.579C970.047,429.579 968.493,430.291 967.543,431.716C966.594,433.14 966.119,435.536 966.119,438.903ZM966.119,531.361C966.119,534.728 966.594,537.124 967.543,538.548C968.493,539.973 970.047,540.685 972.205,540.685C974.363,540.685 975.917,539.973 976.867,538.548C977.816,537.124 978.291,534.728 978.291,531.361L978.291,502.743L1011.96,502.743L1011.96,531.103C1011.96,542.153 1008.49,550.721 1001.53,556.807C994.586,562.893 984.809,565.936 972.205,565.936C957.961,565.936 947.774,562.656 941.644,556.095C935.515,549.534 932.45,538.311 932.45,522.426L932.45,449.262C932.45,433.205 935.472,421.939 941.515,415.464C947.558,408.99 957.702,405.752 971.946,405.752C984.464,405.752 994.262,408.666 1001.34,414.493C1008.42,420.32 1011.96,428.371 1011.96,438.644L1011.96,490.571L966.119,490.571L966.119,531.361Z" style="fill:black;fill-rule:nonzero;"/>
                    <path d="M1027.89,562.181L1027.89,433.593L1019.6,433.593L1019.6,409.378L1027.89,409.378L1027.89,394.875C1027.89,387.45 1030.13,381.645 1034.62,377.458C1039.11,373.271 1045.37,371.177 1053.4,371.177L1072.43,371.177L1072.43,395.134C1068.46,395.134 1065.66,395.587 1064.02,396.493C1062.38,397.4 1061.56,398.975 1061.56,401.22L1061.56,409.378L1072.43,409.378L1072.43,433.593L1061.56,433.593L1061.56,562.181L1027.89,562.181Z" style="fill:black;fill-rule:nonzero;"/>
                    <path d="M1078.52,562.181L1078.52,409.378L1112.19,409.378L1112.19,562.181L1078.52,562.181ZM1078.52,400.184L1078.52,371.177L1112.19,371.177L1112.19,400.184L1078.52,400.184Z" style="fill:black;fill-rule:nonzero;"/>
                    <path d="M1114.52,562.181L1135.5,481.765L1118.53,409.378L1154.14,409.378L1159.97,444.471C1160.49,447.579 1160.94,450.989 1161.33,454.701C1161.72,458.413 1161.96,462.212 1162.04,466.096L1163.08,466.226C1163.6,458.715 1164.63,450.902 1166.19,442.788C1166.19,442.529 1166.23,442.27 1166.32,442.011L1172.66,409.378L1204,409.378L1186.65,482.672L1204,562.181L1168.39,562.181L1161.53,523.98C1161.01,521.045 1160.6,517.57 1160.3,513.556C1159.99,509.542 1159.76,505.161 1159.58,500.412L1158.68,500.412C1158.33,505.333 1157.9,509.973 1157.38,514.333C1156.86,518.693 1156.39,521.908 1155.96,523.98L1148.32,562.181L1114.52,562.181Z" style="fill:black;fill-rule:nonzero;"/>
                    <path d="M1241.81,438.903L1241.81,467.78L1253.98,467.78L1253.98,438.903C1253.98,435.536 1253.51,433.14 1252.56,431.716C1251.61,430.291 1250.06,429.579 1247.9,429.579C1245.74,429.579 1244.19,430.291 1243.24,431.716C1242.29,433.14 1241.81,435.536 1241.81,438.903ZM1241.81,531.361C1241.81,534.728 1242.29,537.124 1243.24,538.548C1244.19,539.973 1245.74,540.685 1247.9,540.685C1250.06,540.685 1251.61,539.973 1252.56,538.548C1253.51,537.124 1253.98,534.728 1253.98,531.361L1253.98,502.743L1287.65,502.743L1287.65,531.103C1287.65,542.153 1284.18,550.721 1277.23,556.807C1270.28,562.893 1260.5,565.936 1247.9,565.936C1233.65,565.936 1223.47,562.656 1217.34,556.095C1211.21,549.534 1208.14,538.311 1208.14,522.426L1208.14,449.262C1208.14,433.205 1211.16,421.939 1217.21,415.464C1223.25,408.99 1233.39,405.752 1247.64,405.752C1260.16,405.752 1269.95,408.666 1277.03,414.493C1284.11,420.32 1287.65,428.371 1287.65,438.644L1287.65,490.571L1241.81,490.571L1241.81,531.361Z" style="fill:black;fill-rule:nonzero;"/>
                    <path d="M1377.26,562.181L1344.11,562.181L1344.11,548.973L1343.59,548.973C1341.35,554.584 1338.22,558.814 1334.21,561.663C1330.19,564.512 1325.29,565.936 1319.51,565.936C1312.17,565.936 1306.71,563.8 1303.13,559.526C1299.54,555.253 1297.75,548.8 1297.75,540.167L1297.75,432.557C1297.75,423.838 1299.57,417.32 1303.19,413.004C1306.82,408.687 1312.26,406.529 1319.51,406.529C1324.86,406.529 1329.48,407.824 1333.36,410.414C1337.25,413.004 1340.49,416.932 1343.08,422.198L1343.59,422.198L1343.59,371.177L1377.26,371.177L1377.26,562.181ZM1331.42,528.772C1331.42,532.311 1331.88,534.75 1332.78,536.088C1333.69,537.426 1335.26,538.095 1337.51,538.095C1339.58,538.095 1341.11,537.318 1342.11,535.764C1343.1,534.21 1343.59,531.879 1343.59,528.772L1343.59,443.694C1343.59,440.586 1343.1,438.298 1342.11,436.831C1341.11,435.363 1339.58,434.629 1337.51,434.629C1335.26,434.629 1333.69,435.255 1332.78,436.507C1331.88,437.759 1331.42,440.154 1331.42,443.694L1331.42,528.772Z" style="fill:black;fill-rule:nonzero;"/>
                    <path d="M1385.42,591.058C1395,574.138 1402.23,556.462 1407.11,538.03C1411.99,519.599 1414.43,500.585 1414.43,480.988C1414.43,461.392 1412.01,442.442 1407.18,424.14C1402.34,405.839 1395.09,388.184 1385.42,371.177L1415.72,371.177C1426.69,390.601 1434.74,409.205 1439.87,426.989C1445.01,444.773 1447.58,462.773 1447.58,480.988C1447.58,499.031 1444.97,517.031 1439.74,534.987C1434.52,552.944 1426.43,571.634 1415.46,591.058L1385.42,591.058Z" style="fill:black;fill-rule:nonzero;"/>
                </g>
            </g>
            <g transform="matrix(1.29,0,0,1,-112.663,0)">
                <path d="M402.852,500.227C400.997,503.473 399.606,506.859 398.679,510.387C397.751,513.914 397.288,517.549 397.288,521.291C397.288,525.067 397.751,528.718 398.679,532.245C399.606,535.773 400.997,539.159 402.852,542.405L397.039,542.405C394.953,538.695 393.413,535.127 392.419,531.699C391.425,528.271 390.929,524.802 390.929,521.291C390.929,517.847 391.43,514.411 392.431,510.983C393.433,507.555 394.986,503.97 397.089,500.227L402.852,500.227Z" style="fill:black;fill-rule:nonzero;"/>
                <path d="M407.174,536.866L402.951,507.555L409.459,507.555L410.875,522.061C410.991,523.154 411.082,524.351 411.148,525.65C411.214,526.95 411.264,528.346 411.297,529.836L411.496,529.836C411.529,528.23 411.591,526.685 411.682,525.203C411.773,523.721 411.877,522.359 411.992,521.117L413.309,507.555L419.419,507.555L415.197,536.866L407.174,536.866Z" style="fill:black;fill-rule:nonzero;"/>
                <path d="M426.3,513.218L426.3,518.758L428.635,518.758L428.635,513.218C428.635,512.573 428.544,512.113 428.362,511.84C428.18,511.567 427.881,511.43 427.467,511.43C427.053,511.43 426.755,511.567 426.573,511.84C426.391,512.113 426.3,512.573 426.3,513.218ZM426.3,530.954C426.3,531.6 426.391,532.059 426.573,532.332C426.755,532.606 427.053,532.742 427.467,532.742C427.881,532.742 428.18,532.606 428.362,532.332C428.544,532.059 428.635,531.6 428.635,530.954L428.635,525.464L435.093,525.464L435.093,530.904C435.093,533.024 434.427,534.667 433.094,535.835C431.761,537.002 429.885,537.586 427.467,537.586C424.735,537.586 422.781,536.957 421.605,535.698C420.43,534.44 419.842,532.287 419.842,529.24L419.842,515.205C419.842,512.125 420.421,509.964 421.581,508.722C422.74,507.48 424.685,506.859 427.418,506.859C429.819,506.859 431.698,507.418 433.056,508.536C434.414,509.654 435.093,511.198 435.093,513.169L435.093,523.129L426.3,523.129L426.3,530.954Z" style="fill:black;fill-rule:nonzero;"/>
                <path d="M437.13,536.866L437.13,507.555L443.489,507.555L443.489,510.014L443.588,510.014C444.135,508.987 444.789,508.23 445.551,507.741C446.312,507.253 447.198,507.008 448.208,507.008C449.616,507.008 450.672,507.427 451.376,508.263C452.079,509.099 452.431,510.345 452.431,512.001L452.431,523.328L445.923,523.328L445.923,514.137C445.923,513.458 445.836,512.999 445.662,512.759C445.489,512.519 445.186,512.399 444.756,512.399C444.358,512.399 444.064,512.539 443.874,512.821C443.684,513.102 443.588,513.541 443.588,514.137L443.588,536.866L437.13,536.866Z" style="fill:black;fill-rule:nonzero;"/>
                <path d="M454.915,536.866L454.915,507.555L461.224,507.555L461.224,510.014L461.324,510.014C461.837,509.004 462.479,508.25 463.249,507.754C464.019,507.257 464.917,507.008 465.944,507.008C466.921,507.008 467.741,507.261 468.403,507.766C469.065,508.271 469.554,509.02 469.869,510.014L469.968,510.014C470.547,509.004 471.222,508.25 471.992,507.754C472.762,507.257 473.652,507.008 474.663,507.008C476.087,507.008 477.138,507.414 477.817,508.226C478.496,509.037 478.836,510.296 478.836,512.001L478.836,536.866L472.352,536.866L472.352,514.137C472.352,513.458 472.266,512.999 472.092,512.759C471.918,512.519 471.616,512.399 471.185,512.399C470.788,512.399 470.494,512.539 470.303,512.821C470.113,513.102 470.018,513.541 470.018,514.137L470.018,536.866L463.659,536.866L463.659,514.137C463.659,513.458 463.572,512.999 463.398,512.759C463.224,512.519 462.922,512.399 462.491,512.399C462.094,512.399 461.8,512.539 461.609,512.821C461.419,513.102 461.324,513.541 461.324,514.137L461.324,536.866L454.915,536.866Z" style="fill:black;fill-rule:nonzero;"/>
                <path d="M496.149,507.555L496.149,536.866L489.79,536.866L489.79,534.431L489.641,534.431C489.094,535.441 488.453,536.182 487.716,536.654C486.979,537.126 486.097,537.362 485.07,537.362C483.663,537.362 482.607,536.952 481.903,536.133C481.199,535.313 480.848,534.084 480.848,532.444L480.848,507.555L487.306,507.555L487.306,530.308C487.306,530.954 487.401,531.401 487.591,531.649C487.782,531.898 488.092,532.022 488.523,532.022C488.92,532.022 489.206,531.889 489.38,531.624C489.554,531.359 489.641,530.921 489.641,530.308L489.641,507.555L496.149,507.555Z" style="fill:black;fill-rule:nonzero;"/>
                <path d="M497.167,512.25L497.167,507.555L498.807,507.555L498.807,502.115L505.314,502.115L505.314,507.555L507.202,507.555L507.202,512.25L505.314,512.25L505.314,530.06C505.314,530.97 505.426,531.546 505.65,531.786C505.873,532.026 506.316,532.146 506.979,532.146L507.202,532.146L507.202,536.866L503.129,536.866C501.555,536.866 500.442,536.505 499.788,535.785C499.134,535.065 498.807,533.711 498.807,531.724L498.807,512.25L497.167,512.25Z" style="fill:black;fill-rule:nonzero;"/>
                <rect x="508.32" y="500.227" width="6.458" height="36.638" style="fill:black;fill-rule:nonzero;"/>
                <path d="M516.915,536.866L516.915,507.555L523.373,507.555L523.373,536.866L516.915,536.866ZM516.915,505.791L516.915,500.227L523.373,500.227L523.373,505.791L516.915,505.791Z" style="fill:black;fill-rule:nonzero;"/>
                <path d="M525.41,529.24L525.41,515.205C525.41,512.125 525.989,509.964 527.148,508.722C528.308,507.48 530.253,506.859 532.986,506.859C535.387,506.859 537.266,507.418 538.624,508.536C539.982,509.654 540.661,511.198 540.661,513.169L540.661,517.789L534.203,517.789L534.203,513.218C534.203,512.573 534.112,512.113 533.93,511.84C533.747,511.567 533.449,511.43 533.035,511.43C532.621,511.43 532.323,511.567 532.141,511.84C531.959,512.113 531.868,512.573 531.868,513.218L531.868,530.954C531.868,531.6 531.959,532.059 532.141,532.332C532.323,532.606 532.621,532.742 533.035,532.742C533.449,532.742 533.747,532.606 533.93,532.332C534.112,532.059 534.203,531.6 534.203,530.954L534.203,525.464L540.661,525.464L540.661,530.904C540.661,533.024 539.995,534.667 538.661,535.835C537.328,537.002 535.453,537.586 533.035,537.586C530.303,537.586 528.349,536.957 527.173,535.698C525.997,534.44 525.41,532.287 525.41,529.24Z" style="fill:black;fill-rule:nonzero;"/>
                <path d="M542.499,536.866L542.499,500.227L548.957,500.227L548.957,510.014L549.057,510.014C549.537,508.987 550.15,508.23 550.895,507.741C551.64,507.253 552.534,507.008 553.578,507.008C554.985,507.008 556.041,507.427 556.745,508.263C557.448,509.099 557.8,510.345 557.8,512.001L557.8,536.866L551.292,536.866L551.292,514.137C551.292,513.458 551.205,512.999 551.032,512.759C550.858,512.519 550.555,512.399 550.125,512.399C549.727,512.399 549.434,512.539 549.243,512.821C549.053,513.102 548.957,513.541 548.957,514.137L548.957,536.866L542.499,536.866Z" style="fill:black;fill-rule:nonzero;"/>
                <path d="M559.266,542.405C561.104,539.159 562.491,535.768 563.426,532.233C564.362,528.697 564.83,525.05 564.83,521.291C564.83,517.532 564.366,513.897 563.439,510.387C562.512,506.876 561.121,503.49 559.266,500.227L565.078,500.227C567.181,503.953 568.726,507.522 569.711,510.933C570.696,514.344 571.189,517.797 571.189,521.291C571.189,524.752 570.688,528.205 569.686,531.649C568.684,535.094 567.132,538.679 565.029,542.405L559.266,542.405Z" style="fill:black;fill-rule:nonzero;"/>
            </g>
            <g transform="matrix(1.29,0,0,1,-89.73,-43.1723)">
                <path d="M102.713,518.153L102.713,423.184L123.638,423.184L123.638,518.153L102.713,518.153ZM102.713,417.469L102.713,399.441L123.638,399.441L123.638,417.469L102.713,417.469Z" style="fill:black;fill-rule:nonzero;"/>
                <path d="M179.493,498.516C179.493,505.598 177.374,511.031 173.135,514.813C168.896,518.596 162.78,520.487 154.785,520.487C146.951,520.487 140.848,518.583 136.475,514.773C132.102,510.964 129.916,505.652 129.916,498.838L129.916,481.212L151.002,481.212L151.002,498.999C151.002,501.091 151.297,502.58 151.888,503.465C152.478,504.351 153.444,504.793 154.785,504.793C156.126,504.793 157.092,504.351 157.682,503.465C158.273,502.58 158.568,501.091 158.568,498.999L158.568,490.467C158.568,486.604 155.08,481.882 148.105,476.302C146.603,475.122 145.422,474.183 144.564,473.485L144.403,473.324C134.745,465.33 129.916,457.308 129.916,449.26L129.916,440.809C129.916,434.532 132.089,429.649 136.435,426.162C140.781,422.674 146.844,420.93 154.624,420.93C162.511,420.93 168.628,422.754 172.974,426.403C177.32,430.052 179.493,435.202 179.493,441.856L179.493,456.343L158.568,456.343L158.568,441.534C158.568,439.441 158.273,437.952 157.682,437.067C157.092,436.182 156.126,435.739 154.785,435.739C153.444,435.739 152.478,436.182 151.888,437.067C151.297,437.952 151.002,439.441 151.002,441.534L151.002,446.604C151.002,450.897 154.356,455.618 161.063,460.769C162.619,461.95 163.826,462.889 164.684,463.586C171.284,468.898 175.402,473.043 177.039,476.021C178.675,478.999 179.493,482.875 179.493,487.65L179.493,498.516Z" style="fill:black;fill-rule:nonzero;"/>
                <path d="M182.149,438.395L182.149,423.184L187.461,423.184L187.461,405.558L208.548,405.558L208.548,423.184L214.664,423.184L214.664,438.395L208.548,438.395L208.548,496.101C208.548,499.052 208.91,500.917 209.634,501.695C210.358,502.473 211.794,502.862 213.94,502.862L214.664,502.862L214.664,518.153L201.465,518.153C196.368,518.153 192.759,516.986 190.64,514.652C188.521,512.318 187.461,507.932 187.461,501.493L187.461,438.395L182.149,438.395Z" style="fill:black;fill-rule:nonzero;"/>
                <path d="M277.924,496.745L277.924,471.554C277.602,471.768 277.173,472.09 276.636,472.52C272.451,475.739 270.358,478.583 270.358,481.051L270.358,496.745C270.358,498.891 270.64,500.353 271.203,501.131C271.767,501.909 272.746,502.298 274.141,502.298C275.429,502.298 276.381,501.856 276.998,500.97C277.615,500.085 277.924,498.677 277.924,496.745ZM249.272,442.661C249.272,435.471 251.351,430.052 255.509,426.403C259.668,422.754 265.824,420.93 273.98,420.93C282.887,420.93 289.232,422.956 293.014,427.007C296.797,431.058 298.688,438.046 298.688,447.972L298.688,505.759C298.688,508.281 298.809,510.521 299.05,512.479C299.292,514.438 299.681,516.329 300.217,518.153L278.97,518.153C278.702,517.027 278.487,515.886 278.326,514.733C278.165,513.579 278.085,512.52 278.085,511.554L278.085,510.105L277.763,510.105C276.26,513.217 274.235,515.605 271.686,517.268C269.138,518.931 266.173,519.763 262.793,519.763C258.34,519.763 254.973,518.422 252.692,515.739C250.412,513.056 249.272,509.086 249.272,503.827L249.272,483.707C249.272,478.717 250.171,474.652 251.968,471.514C253.765,468.375 256.649,465.732 260.62,463.586C261.908,462.889 263.732,461.95 266.093,460.769C273.98,456.745 277.924,452.909 277.924,449.26L277.924,442.5C277.924,440.461 277.615,438.985 276.998,438.073C276.381,437.161 275.375,436.705 273.98,436.705C272.692,436.705 271.767,437.161 271.203,438.073C270.64,438.985 270.358,440.461 270.358,442.5L270.358,456.343L249.272,456.343L249.272,442.661Z" style="fill:black;fill-rule:nonzero;"/>
                <path d="M333.94,497.389L333.94,444.512C333.94,442.312 333.658,440.823 333.095,440.045C332.531,439.267 331.552,438.878 330.157,438.878C328.869,438.878 327.917,439.334 327.3,440.246C326.683,441.158 326.374,442.58 326.374,444.512L326.374,497.389C326.374,499.32 326.683,500.769 327.3,501.735C327.917,502.701 328.869,503.184 330.157,503.184C331.552,503.184 332.531,502.768 333.095,501.936C333.658,501.104 333.94,499.589 333.94,497.389ZM305.449,518.153L305.449,399.441L326.374,399.441L326.374,431.152L326.696,431.152C328.306,427.879 330.318,425.437 332.732,423.828C335.147,422.218 338.018,421.413 341.344,421.413C345.905,421.413 349.325,422.768 351.606,425.477C353.886,428.187 355.026,432.225 355.026,437.59L355.026,504.471C355.026,509.783 353.899,513.781 351.646,516.463C349.392,519.146 345.958,520.487 341.344,520.487C337.803,520.487 334.771,519.602 332.25,517.831C329.728,516.061 327.769,513.432 326.374,509.944L326.052,509.944L326.052,518.153L305.449,518.153Z" style="fill:black;fill-rule:nonzero;"/>
                <path d="M382.068,441.534L382.068,459.481L389.634,459.481L389.634,441.534C389.634,439.441 389.339,437.952 388.749,437.067C388.158,436.182 387.193,435.739 385.851,435.739C384.51,435.739 383.544,436.182 382.954,437.067C382.364,437.952 382.068,439.441 382.068,441.534ZM382.068,498.999C382.068,501.091 382.364,502.58 382.954,503.465C383.544,504.351 384.51,504.793 385.851,504.793C387.193,504.793 388.158,504.351 388.749,503.465C389.339,502.58 389.634,501.091 389.634,498.999L389.634,481.212L410.559,481.212L410.559,498.838C410.559,505.705 408.4,511.031 404.08,514.813C399.761,518.596 393.685,520.487 385.851,520.487C376.998,520.487 370.667,518.449 366.857,514.371C363.048,510.293 361.143,503.318 361.143,493.445L361.143,447.972C361.143,437.993 363.021,430.991 366.777,426.966C370.533,422.942 376.837,420.93 385.69,420.93C393.47,420.93 399.56,422.741 403.96,426.363C408.359,429.985 410.559,434.988 410.559,441.373L410.559,473.646L382.068,473.646L382.068,498.999Z" style="fill:black;fill-rule:nonzero;"/>
                <path d="M417.159,518.153L417.159,423.184L437.763,423.184L437.763,431.152L438.084,431.152C439.855,427.825 441.974,425.37 444.443,423.787C446.911,422.205 449.781,421.413 453.054,421.413C457.615,421.413 461.035,422.768 463.316,425.477C465.596,428.187 466.736,432.225 466.736,437.59L466.736,474.29L445.65,474.29L445.65,444.512C445.65,442.312 445.368,440.823 444.805,440.045C444.241,439.267 443.262,438.878 441.867,438.878C440.579,438.878 439.627,439.334 439.01,440.246C438.393,441.158 438.084,442.58 438.084,444.512L438.084,518.153L417.159,518.153Z" style="fill:black;fill-rule:nonzero;"/>
                <path d="M523.638,441.534L523.638,459.481L531.203,459.481L531.203,441.534C531.203,439.441 530.908,437.952 530.318,437.067C529.728,436.182 528.762,435.739 527.42,435.739C526.079,435.739 525.113,436.182 524.523,437.067C523.933,437.952 523.638,439.441 523.638,441.534ZM523.638,498.999C523.638,501.091 523.933,502.58 524.523,503.465C525.113,504.351 526.079,504.793 527.42,504.793C528.762,504.793 529.728,504.351 530.318,503.465C530.908,502.58 531.203,501.091 531.203,498.999L531.203,481.212L552.129,481.212L552.129,498.838C552.129,505.705 549.969,511.031 545.65,514.813C541.33,518.596 535.254,520.487 527.42,520.487C518.567,520.487 512.236,518.449 508.426,514.371C504.617,510.293 502.712,503.318 502.712,493.445L502.712,447.972C502.712,437.993 504.59,430.991 508.346,426.966C512.102,422.942 518.406,420.93 527.259,420.93C535.039,420.93 541.129,422.741 545.529,426.363C549.929,429.985 552.129,434.988 552.129,441.373L552.129,473.646L523.638,473.646L523.638,498.999Z" style="fill:black;fill-rule:nonzero;"/>
                <path d="M558.728,518.153L558.728,423.184L579.654,423.184L579.654,518.153L558.728,518.153ZM558.728,417.469L558.728,399.441L579.654,399.441L579.654,417.469L558.728,417.469Z" style="fill:black;fill-rule:nonzero;"/>
                <path d="M586.575,518.153L586.575,423.184L607.179,423.184L607.179,431.152L607.501,431.152C609.271,427.825 611.391,425.37 613.859,423.787C616.327,422.205 619.198,421.413 622.471,421.413C627.031,421.413 630.452,422.768 632.732,425.477C635.012,428.187 636.153,432.225 636.153,437.59L636.153,518.153L615.066,518.153L615.066,444.512C615.066,442.312 614.784,440.823 614.221,440.045C613.658,439.267 612.678,438.878 611.283,438.878C609.996,438.878 609.043,439.334 608.426,440.246C607.809,441.158 607.501,442.58 607.501,444.512L607.501,518.153L586.575,518.153Z" style="fill:black;fill-rule:nonzero;"/>
                <path d="M674.221,471.473L697.802,471.473L697.802,497.067C697.802,499.106 698.124,500.581 698.768,501.493C699.412,502.406 700.458,502.862 701.907,502.862C703.302,502.862 704.308,502.419 704.925,501.534C705.542,500.648 705.851,499.159 705.851,497.067L705.851,474.773C705.851,472.09 705.14,469.864 703.718,468.093C702.296,466.322 700.539,465.437 698.446,465.437L690.237,465.437L690.237,448.294L698.446,448.294C700.807,448.294 702.631,447.463 703.919,445.799C705.207,444.136 705.851,441.829 705.851,438.878L705.851,419.562C705.851,417.577 705.542,416.128 704.925,415.216C704.308,414.304 703.302,413.848 701.907,413.848C700.458,413.848 699.412,414.277 698.768,415.135C698.124,415.994 697.802,417.469 697.802,419.562L697.802,441.534L674.221,441.534L674.221,427.53C674.221,416.316 676.34,408.402 680.579,403.787C684.818,399.173 691.874,396.866 701.746,396.866C710.867,396.866 717.762,398.932 722.43,403.063C727.098,407.194 729.432,413.311 729.432,421.413L729.432,435.095C729.432,440.836 727.983,445.464 725.086,448.978C722.189,452.493 717.762,455.001 711.806,456.504C717.816,457.255 722.256,459.2 725.126,462.339C727.997,465.477 729.432,469.971 729.432,475.819L729.432,496.584C729.432,504.364 727.045,510.347 722.269,514.532C717.494,518.717 710.653,520.809 701.746,520.809C691.927,520.809 684.885,518.475 680.619,513.807C676.354,509.139 674.221,501.252 674.221,490.145L674.221,471.473Z" style="fill:black;fill-rule:nonzero;"/>
                <path d="M739.653,518.153L769.995,415.94L734.664,415.94L734.664,399.441L794.06,399.441L794.06,415.135L764.362,518.153L739.653,518.153Z" style="fill:black;fill-rule:nonzero;"/>
                <path d="M799.452,427.53C799.452,416.477 801.598,408.603 805.891,403.908C810.183,399.213 817.266,396.866 827.138,396.866C837.064,396.866 844.16,399.186 848.426,403.828C852.692,408.469 854.824,416.37 854.824,427.53L854.824,490.145C854.824,501.252 852.692,509.139 848.426,513.807C844.16,518.475 837.064,520.809 827.138,520.809C817.212,520.809 810.116,518.475 805.851,513.807C801.585,509.139 799.452,501.252 799.452,490.145L799.452,427.53ZM823.034,419.562L823.034,497.067C823.034,499.106 823.356,500.581 823.999,501.493C824.643,502.406 825.69,502.862 827.138,502.862C828.587,502.862 829.606,502.419 830.197,501.534C830.787,500.648 831.082,499.159 831.082,497.067L831.082,419.562C831.082,417.416 830.787,415.927 830.197,415.095C829.606,414.264 828.587,413.848 827.138,413.848C825.743,413.848 824.71,414.317 824.04,415.256C823.369,416.195 823.034,417.63 823.034,419.562Z" style="fill:black;fill-rule:nonzero;"/>
                <path d="M862.068,427.53C862.068,416.477 864.214,408.603 868.506,403.908C872.799,399.213 879.881,396.866 889.754,396.866C899.68,396.866 906.776,399.186 911.042,403.828C915.307,408.469 917.44,416.37 917.44,427.53L917.44,490.145C917.44,501.252 915.307,509.139 911.042,513.807C906.776,518.475 899.68,520.809 889.754,520.809C879.828,520.809 872.732,518.475 868.466,513.807C864.201,509.139 862.068,501.252 862.068,490.145L862.068,427.53ZM885.649,419.562L885.649,497.067C885.649,499.106 885.971,500.581 886.615,501.493C887.259,502.406 888.305,502.862 889.754,502.862C891.203,502.862 892.222,502.419 892.812,501.534C893.402,500.648 893.698,499.159 893.698,497.067L893.698,419.562C893.698,417.416 893.402,415.927 892.812,415.095C892.222,414.264 891.203,413.848 889.754,413.848C888.359,413.848 887.326,414.317 886.655,415.256C885.985,416.195 885.649,417.63 885.649,419.562Z" style="fill:black;fill-rule:nonzero;"/>
                <path d="M933.456,518.153L919.774,423.184L940.86,423.184L945.448,470.186C945.824,473.727 946.119,477.603 946.333,481.815C946.548,486.027 946.709,490.548 946.816,495.377L947.46,495.377C947.567,490.172 947.769,485.169 948.064,480.367C948.359,475.565 948.694,471.151 949.07,467.127L953.335,423.184L973.134,423.184L959.452,518.153L933.456,518.153Z" style="fill:black;fill-rule:nonzero;"/>
                <path d="M1006.13,419.562C1006.13,417.523 1005.81,416.034 1005.17,415.095C1004.52,414.156 1003.53,413.687 1002.19,413.687C1000.74,413.687 999.72,414.116 999.13,414.974C998.54,415.833 998.245,417.362 998.245,419.562L998.245,441.212L974.824,441.212L974.824,427.53C974.824,416.37 976.957,408.469 981.223,403.828C985.488,399.186 992.584,396.866 1002.51,396.866C1011.79,396.866 1018.73,399.133 1023.32,403.667C1027.9,408.2 1030.2,415.055 1030.2,424.23C1030.2,434.961 1024.51,448.992 1013.13,466.322C1010.93,469.756 1009.27,472.359 1008.14,474.129C1004.12,480.461 1001.38,485.437 999.935,489.059C998.486,492.681 997.762,495.994 997.762,498.999C997.762,499.267 997.789,499.616 997.842,500.045C997.896,500.474 997.923,500.796 997.923,501.011L1030.36,501.011L1030.36,518.153L974.663,518.153L974.663,498.516C974.663,493.687 975.522,488.884 977.239,484.109C978.956,479.334 982.443,472.868 987.701,464.713C988.882,462.889 990.572,460.313 992.772,456.986C1001.68,443.412 1006.13,434.022 1006.13,428.818L1006.13,419.562Z" style="fill:black;fill-rule:nonzero;"/>
            </g>
        </g>
    </g>
</svg>
